{"glyphs":{"0":{"ha":694,"x_min":0,"x_max":608,"o":"m 304 764 l 521 764 l 521 721 l 521 678 l 564 678 l 608 678 l 608 374 l 608 69 l 564 69 l 521 69 l 521 26 l 521 -17 l 304 -17 l 86 -17 l 86 26 l 86 69 l 43 69 l 0 69 l 0 374 l 0 678 l 43 678 l 86 678 l 86 721 l 86 764 l 304 764 m 304 678 l 174 678 l 174 503 l 174 331 l 217 331 l 261 331 l 261 417 l 261 503 l 304 503 l 347 503 l 347 547 l 347 590 l 390 590 l 433 590 l 433 633 l 433 678 l 304 678 m 390 417 l 347 417 l 347 331 l 347 243 l 304 243 l 261 243 l 261 200 l 261 156 l 217 156 l 174 156 l 174 113 l 174 69 l 304 69 l 433 69 l 433 243 l 433 417 l 390 417 z "},"1":{"ha":694,"x_min":0,"x_max":521,"o":"m 304 764 l 347 764 l 347 417 l 347 69 l 433 69 l 521 69 l 521 26 l 521 -17 l 261 -17 l 0 -17 l 0 26 l 0 69 l 86 69 l 174 69 l 174 286 l 174 503 l 86 503 l 0 503 l 0 547 l 0 590 l 86 590 l 174 590 l 174 633 l 174 678 l 217 678 l 261 678 l 261 721 l 261 764 l 304 764 z "},"2":{"ha":694,"x_min":0,"x_max":521,"o":"m 261 764 l 433 764 l 433 721 l 433 678 l 478 678 l 521 678 l 521 547 l 521 417 l 478 417 l 433 417 l 433 374 l 433 331 l 390 331 l 347 331 l 347 286 l 347 243 l 304 243 l 261 243 l 261 200 l 261 156 l 217 156 l 174 156 l 174 113 l 174 69 l 261 69 l 347 69 l 347 113 l 347 156 l 433 156 l 521 156 l 521 69 l 521 -17 l 261 -17 l 0 -17 l 0 69 l 0 156 l 43 156 l 86 156 l 86 200 l 86 243 l 131 243 l 174 243 l 174 286 l 174 331 l 217 331 l 261 331 l 261 374 l 261 417 l 304 417 l 347 417 l 347 547 l 347 678 l 261 678 l 174 678 l 174 590 l 174 503 l 86 503 l 0 503 l 0 590 l 0 678 l 43 678 l 86 678 l 86 721 l 86 764 l 261 764 z "},"3":{"ha":694,"x_min":0,"x_max":521,"o":"m 261 764 l 433 764 l 433 721 l 433 678 l 478 678 l 521 678 l 521 547 l 521 417 l 478 417 l 433 417 l 433 374 l 433 331 l 478 331 l 521 331 l 521 200 l 521 69 l 478 69 l 433 69 l 433 26 l 433 -17 l 261 -17 l 86 -17 l 86 26 l 86 69 l 43 69 l 0 69 l 0 113 l 0 156 l 86 156 l 174 156 l 174 113 l 174 69 l 261 69 l 347 69 l 347 200 l 347 331 l 261 331 l 174 331 l 174 374 l 174 417 l 261 417 l 347 417 l 347 547 l 347 678 l 261 678 l 174 678 l 174 633 l 174 590 l 86 590 l 0 590 l 0 633 l 0 678 l 43 678 l 86 678 l 86 721 l 86 764 l 261 764 z "},"4":{"ha":694,"x_min":0,"x_max":608,"o":"m 433 764 l 521 764 l 521 547 l 521 331 l 564 331 l 608 331 l 608 286 l 608 243 l 564 243 l 521 243 l 521 156 l 521 69 l 564 69 l 608 69 l 608 26 l 608 -17 l 433 -17 l 261 -17 l 261 26 l 261 69 l 304 69 l 347 69 l 347 156 l 347 243 l 174 243 l 0 243 l 0 331 l 0 417 l 43 417 l 86 417 l 86 460 l 86 503 l 131 503 l 174 503 l 174 547 l 174 590 l 217 590 l 261 590 l 261 633 l 261 678 l 304 678 l 347 678 l 347 721 l 347 764 l 433 764 m 304 503 l 261 503 l 261 460 l 261 417 l 217 417 l 174 417 l 174 374 l 174 331 l 261 331 l 347 331 l 347 417 l 347 503 l 304 503 z "},"5":{"ha":694,"x_min":0,"x_max":521,"o":"m 261 764 l 521 764 l 521 721 l 521 678 l 347 678 l 174 678 l 174 547 l 174 417 l 304 417 l 433 417 l 433 374 l 433 331 l 478 331 l 521 331 l 521 200 l 521 69 l 478 69 l 433 69 l 433 26 l 433 -17 l 261 -17 l 86 -17 l 86 26 l 86 69 l 43 69 l 0 69 l 0 113 l 0 156 l 86 156 l 174 156 l 174 113 l 174 69 l 261 69 l 347 69 l 347 200 l 347 331 l 174 331 l 0 331 l 0 547 l 0 764 l 261 764 z "},"6":{"ha":694,"x_min":0,"x_max":521,"o":"m 304 764 l 433 764 l 433 721 l 433 678 l 347 678 l 261 678 l 261 633 l 261 590 l 217 590 l 174 590 l 174 503 l 174 417 l 304 417 l 433 417 l 433 374 l 433 331 l 478 331 l 521 331 l 521 200 l 521 69 l 478 69 l 433 69 l 433 26 l 433 -17 l 261 -17 l 86 -17 l 86 26 l 86 69 l 43 69 l 0 69 l 0 331 l 0 590 l 43 590 l 86 590 l 86 633 l 86 678 l 131 678 l 174 678 l 174 721 l 174 764 l 304 764 m 261 331 l 174 331 l 174 200 l 174 69 l 261 69 l 347 69 l 347 200 l 347 331 l 261 331 z "},"7":{"ha":694,"x_min":0,"x_max":608,"o":"m 304 764 l 608 764 l 608 590 l 608 417 l 564 417 l 521 417 l 521 374 l 521 331 l 478 331 l 433 331 l 433 286 l 433 243 l 390 243 l 347 243 l 347 113 l 347 -17 l 261 -17 l 174 -17 l 174 113 l 174 243 l 217 243 l 261 243 l 261 286 l 261 331 l 304 331 l 347 331 l 347 374 l 347 417 l 390 417 l 433 417 l 433 547 l 433 678 l 304 678 l 174 678 l 174 590 l 174 503 l 86 503 l 0 503 l 0 633 l 0 764 l 304 764 z "},"8":{"ha":694,"x_min":0,"x_max":521,"o":"m 261 764 l 433 764 l 433 721 l 433 678 l 478 678 l 521 678 l 521 547 l 521 417 l 478 417 l 433 417 l 433 374 l 433 331 l 478 331 l 521 331 l 521 200 l 521 69 l 478 69 l 433 69 l 433 26 l 433 -17 l 261 -17 l 86 -17 l 86 26 l 86 69 l 43 69 l 0 69 l 0 200 l 0 331 l 43 331 l 86 331 l 86 374 l 86 417 l 43 417 l 0 417 l 0 547 l 0 678 l 43 678 l 86 678 l 86 721 l 86 764 l 261 764 m 261 678 l 174 678 l 174 590 l 174 503 l 217 503 l 261 503 l 261 460 l 261 417 l 304 417 l 347 417 l 347 547 l 347 678 l 261 678 m 217 331 l 174 331 l 174 200 l 174 69 l 261 69 l 347 69 l 347 156 l 347 243 l 304 243 l 261 243 l 261 286 l 261 331 l 217 331 z "},"9":{"ha":694,"x_min":0,"x_max":521,"o":"m 261 764 l 433 764 l 433 721 l 433 678 l 478 678 l 521 678 l 521 503 l 521 331 l 478 331 l 433 331 l 433 243 l 433 156 l 390 156 l 347 156 l 347 69 l 347 -17 l 217 -17 l 86 -17 l 86 26 l 86 69 l 131 69 l 174 69 l 174 113 l 174 156 l 217 156 l 261 156 l 261 243 l 261 331 l 174 331 l 86 331 l 86 374 l 86 417 l 43 417 l 0 417 l 0 547 l 0 678 l 43 678 l 86 678 l 86 721 l 86 764 l 261 764 m 261 678 l 174 678 l 174 547 l 174 417 l 261 417 l 347 417 l 347 547 l 347 678 l 261 678 z "},"―":{"ha":694,"x_min":46,"x_max":414,"o":"m 46 0 l 46 925 l 414 925 l 414 0 l 46 0 m 92 46 l 368 46 l 368 879 l 92 879 l 92 46 z "},"‖":{"ha":694,"x_min":46,"x_max":414,"o":"m 46 0 l 46 925 l 414 925 l 414 0 l 46 0 m 92 46 l 368 46 l 368 879 l 92 879 l 92 46 z "},"‗":{"ha":694,"x_min":46,"x_max":414,"o":"m 46 0 l 46 925 l 414 925 l 414 0 l 46 0 m 92 46 l 368 46 l 368 879 l 92 879 l 92 46 z "},"‛":{"ha":694,"x_min":46,"x_max":414,"o":"m 46 0 l 46 925 l 414 925 l 414 0 l 46 0 m 92 46 l 368 46 l 368 879 l 92 879 l 92 46 z "},"‟":{"ha":694,"x_min":46,"x_max":414,"o":"m 46 0 l 46 925 l 414 925 l 414 0 l 46 0 m 92 46 l 368 46 l 368 879 l 92 879 l 92 46 z "},"‣":{"ha":694,"x_min":46,"x_max":414,"o":"m 46 0 l 46 925 l 414 925 l 414 0 l 46 0 m 92 46 l 368 46 l 368 879 l 92 879 l 92 46 z "},"․":{"ha":694,"x_min":46,"x_max":414,"o":"m 46 0 l 46 925 l 414 925 l 414 0 l 46 0 m 92 46 l 368 46 l 368 879 l 92 879 l 92 46 z "},"‥":{"ha":694,"x_min":46,"x_max":414,"o":"m 46 0 l 46 925 l 414 925 l 414 0 l 46 0 m 92 46 l 368 46 l 368 879 l 92 879 l 92 46 z "},"\r":{"ha":694,"x_min":0,"x_max":694,"o":"m 478 764 l 694 764 l 694 590 l 694 417 l 564 417 l 433 417 l 433 243 l 433 69 l 390 69 l 347 69 l 347 26 l 347 -17 l 217 -17 l 86 -17 l 86 26 l 86 69 l 43 69 l 0 69 l 0 113 l 0 156 l 43 156 l 86 156 l 86 200 l 86 243 l 174 243 l 261 243 l 261 503 l 261 764 l 478 764 m 521 678 l 433 678 l 433 590 l 433 503 l 521 503 l 608 503 l 608 590 l 608 678 l 521 678 z "},"\u0001":{"ha":694,"x_min":0,"x_max":694,"o":"m 347 331 l 521 331 l 521 286 l 521 243 l 478 243 l 433 243 l 433 200 l 433 156 l 347 156 l 261 156 l 261 200 l 261 243 l 217 243 l 174 243 l 174 286 l 174 331 l 347 331 m 478 503 l 521 503 l 521 460 l 521 417 l 478 417 l 433 417 l 433 460 l 433 503 l 478 503 m 217 503 l 261 503 l 261 460 l 261 417 l 217 417 l 174 417 l 174 460 l 174 503 l 217 503 m 347 764 l 608 764 l 608 721 l 608 678 l 651 678 l 694 678 l 694 374 l 694 69 l 651 69 l 608 69 l 608 26 l 608 -17 l 347 -17 l 86 -17 l 86 26 l 86 69 l 43 69 l 0 69 l 0 374 l 0 678 l 43 678 l 86 678 l 86 721 l 86 764 l 347 764 m 347 678 l 174 678 l 174 633 l 174 590 l 131 590 l 86 590 l 86 374 l 86 156 l 131 156 l 174 156 l 174 113 l 174 69 l 347 69 l 521 69 l 521 113 l 521 156 l 564 156 l 608 156 l 608 374 l 608 590 l 564 590 l 521 590 l 521 633 l 521 678 l 347 678 z "},"\u0002":{"ha":694,"x_min":0,"x_max":694,"o":"m 347 764 l 608 764 l 608 721 l 608 678 l 651 678 l 694 678 l 694 374 l 694 69 l 651 69 l 608 69 l 608 26 l 608 -17 l 347 -17 l 86 -17 l 86 26 l 86 69 l 43 69 l 0 69 l 0 374 l 0 678 l 43 678 l 86 678 l 86 721 l 86 764 l 347 764 m 217 503 l 174 503 l 174 460 l 174 417 l 217 417 l 261 417 l 261 460 l 261 503 l 217 503 m 478 503 l 433 503 l 433 460 l 433 417 l 478 417 l 521 417 l 521 460 l 521 503 l 478 503 m 347 331 l 174 331 l 174 286 l 174 243 l 217 243 l 261 243 l 261 200 l 261 156 l 347 156 l 433 156 l 433 200 l 433 243 l 478 243 l 521 243 l 521 286 l 521 331 l 347 331 z "},"\u0003":{"ha":694,"x_min":0,"x_max":608,"o":"m 131 678 l 174 678 l 174 633 l 174 590 l 217 590 l 261 590 l 261 547 l 261 503 l 304 503 l 347 503 l 347 547 l 347 590 l 390 590 l 433 590 l 433 633 l 433 678 l 478 678 l 521 678 l 521 633 l 521 590 l 564 590 l 608 590 l 608 417 l 608 243 l 564 243 l 521 243 l 521 200 l 521 156 l 478 156 l 433 156 l 433 113 l 433 69 l 390 69 l 347 69 l 347 26 l 347 -17 l 304 -17 l 261 -17 l 261 26 l 261 69 l 217 69 l 174 69 l 174 113 l 174 156 l 131 156 l 86 156 l 86 200 l 86 243 l 43 243 l 0 243 l 0 417 l 0 590 l 43 590 l 86 590 l 86 633 l 86 678 l 131 678 z "},"\u0004":{"ha":694,"x_min":0,"x_max":608,"o":"m 304 764 l 347 764 l 347 721 l 347 678 l 390 678 l 433 678 l 433 633 l 433 590 l 478 590 l 521 590 l 521 547 l 521 503 l 564 503 l 608 503 l 608 417 l 608 331 l 564 331 l 521 331 l 521 286 l 521 243 l 478 243 l 433 243 l 433 200 l 433 156 l 390 156 l 347 156 l 347 113 l 347 69 l 304 69 l 261 69 l 261 113 l 261 156 l 217 156 l 174 156 l 174 200 l 174 243 l 131 243 l 86 243 l 86 286 l 86 331 l 43 331 l 0 331 l 0 417 l 0 503 l 43 503 l 86 503 l 86 547 l 86 590 l 131 590 l 174 590 l 174 633 l 174 678 l 217 678 l 261 678 l 261 721 l 261 764 l 304 764 z "},"\u0005":{"ha":694,"x_min":0,"x_max":694,"o":"m 347 764 l 433 764 l 433 721 l 433 678 l 478 678 l 521 678 l 521 590 l 521 503 l 608 503 l 694 503 l 694 374 l 694 243 l 564 243 l 433 243 l 433 156 l 433 69 l 521 69 l 608 69 l 608 26 l 608 -17 l 347 -17 l 86 -17 l 86 26 l 86 69 l 174 69 l 261 69 l 261 156 l 261 243 l 131 243 l 0 243 l 0 374 l 0 503 l 86 503 l 174 503 l 174 590 l 174 678 l 217 678 l 261 678 l 261 721 l 261 764 l 347 764 m 347 417 l 261 417 l 261 331 l 261 243 l 347 243 l 433 243 l 433 331 l 433 417 l 347 417 z "},"\u0006":{"ha":694,"x_min":0,"x_max":694,"o":"m 347 764 l 433 764 l 433 721 l 433 678 l 478 678 l 521 678 l 521 633 l 521 590 l 564 590 l 608 590 l 608 547 l 608 503 l 651 503 l 694 503 l 694 417 l 694 331 l 651 331 l 608 331 l 608 286 l 608 243 l 521 243 l 433 243 l 433 156 l 433 69 l 521 69 l 608 69 l 608 26 l 608 -17 l 347 -17 l 86 -17 l 86 26 l 86 69 l 174 69 l 261 69 l 261 156 l 261 243 l 174 243 l 86 243 l 86 286 l 86 331 l 43 331 l 0 331 l 0 417 l 0 503 l 43 503 l 86 503 l 86 547 l 86 590 l 131 590 l 174 590 l 174 633 l 174 678 l 217 678 l 261 678 l 261 721 l 261 764 l 347 764 z "},"\u0007":{"ha":694,"x_min":86,"x_max":608,"o":"m 347 503 l 521 503 l 521 460 l 521 417 l 564 417 l 608 417 l 608 331 l 608 243 l 564 243 l 521 243 l 521 200 l 521 156 l 347 156 l 174 156 l 174 200 l 174 243 l 131 243 l 86 243 l 86 331 l 86 417 l 131 417 l 174 417 l 174 460 l 174 503 l 347 503 z "},"\b":{"ha":694,"x_min":0,"x_max":694,"o":"m 347 850 l 694 850 l 694 331 l 694 -192 l 347 -192 l 0 -192 l 0 331 l 0 850 l 347 850 m 347 503 l 174 503 l 174 460 l 174 417 l 131 417 l 86 417 l 86 331 l 86 243 l 131 243 l 174 243 l 174 200 l 174 156 l 347 156 l 521 156 l 521 200 l 521 243 l 564 243 l 608 243 l 608 331 l 608 417 l 564 417 l 521 417 l 521 460 l 521 503 l 347 503 z "},"\t":{"ha":694,"x_min":86,"x_max":608,"o":"m 347 678 l 521 678 l 521 633 l 521 590 l 564 590 l 608 590 l 608 331 l 608 69 l 564 69 l 521 69 l 521 26 l 521 -17 l 347 -17 l 174 -17 l 174 26 l 174 69 l 131 69 l 86 69 l 86 331 l 86 590 l 131 590 l 174 590 l 174 633 l 174 678 l 347 678 m 347 503 l 261 503 l 261 460 l 261 417 l 217 417 l 174 417 l 174 331 l 174 243 l 217 243 l 261 243 l 261 200 l 261 156 l 347 156 l 433 156 l 433 200 l 433 243 l 478 243 l 521 243 l 521 331 l 521 417 l 478 417 l 433 417 l 433 460 l 433 503 l 347 503 z "},"\n":{"ha":694,"x_min":0,"x_max":694,"o":"m 347 503 l 433 503 l 433 460 l 433 417 l 478 417 l 521 417 l 521 331 l 521 243 l 478 243 l 433 243 l 433 200 l 433 156 l 347 156 l 261 156 l 261 200 l 261 243 l 217 243 l 174 243 l 174 331 l 174 417 l 217 417 l 261 417 l 261 460 l 261 503 l 347 503 m 347 850 l 694 850 l 694 331 l 694 -192 l 347 -192 l 0 -192 l 0 331 l 0 850 l 347 850 m 347 678 l 174 678 l 174 633 l 174 590 l 131 590 l 86 590 l 86 331 l 86 69 l 131 69 l 174 69 l 174 26 l 174 -17 l 347 -17 l 521 -17 l 521 26 l 521 69 l 564 69 l 608 69 l 608 331 l 608 590 l 564 590 l 521 590 l 521 633 l 521 678 l 347 678 z "},"\u000b":{"ha":694,"x_min":0,"x_max":608,"o":"m 390 764 l 608 764 l 608 590 l 608 417 l 564 417 l 521 417 l 521 503 l 521 590 l 478 590 l 433 590 l 433 547 l 433 503 l 390 503 l 347 503 l 347 460 l 347 417 l 390 417 l 433 417 l 433 374 l 433 331 l 478 331 l 521 331 l 521 200 l 521 69 l 478 69 l 433 69 l 433 26 l 433 -17 l 261 -17 l 86 -17 l 86 26 l 86 69 l 43 69 l 0 69 l 0 243 l 0 417 l 43 417 l 86 417 l 86 460 l 86 503 l 131 503 l 174 503 l 174 547 l 174 590 l 261 590 l 347 590 l 347 633 l 347 678 l 261 678 l 174 678 l 174 721 l 174 764 l 390 764 m 261 331 l 174 331 l 174 200 l 174 69 l 261 69 l 347 69 l 347 200 l 347 331 l 261 331 z "},"\f":{"ha":694,"x_min":86,"x_max":608,"o":"m 347 764 l 521 764 l 521 721 l 521 678 l 564 678 l 608 678 l 608 547 l 608 417 l 564 417 l 521 417 l 521 374 l 521 331 l 478 331 l 433 331 l 433 286 l 433 243 l 521 243 l 608 243 l 608 200 l 608 156 l 521 156 l 433 156 l 433 69 l 433 -17 l 347 -17 l 261 -17 l 261 69 l 261 156 l 174 156 l 86 156 l 86 200 l 86 243 l 174 243 l 261 243 l 261 286 l 261 331 l 217 331 l 174 331 l 174 374 l 174 417 l 131 417 l 86 417 l 86 547 l 86 678 l 131 678 l 174 678 l 174 721 l 174 764 l 347 764 m 347 678 l 261 678 l 261 547 l 261 417 l 347 417 l 433 417 l 433 547 l 433 678 l 347 678 z "},"\u000e":{"ha":694,"x_min":0,"x_max":694,"o":"m 390 764 l 694 764 l 694 417 l 694 69 l 651 69 l 608 69 l 608 26 l 608 -17 l 521 -17 l 433 -17 l 433 113 l 433 243 l 478 243 l 521 243 l 521 374 l 521 503 l 390 503 l 261 503 l 261 243 l 261 -17 l 217 -17 l 174 -17 l 174 -61 l 174 -104 l 86 -104 l 0 -104 l 0 26 l 0 156 l 43 156 l 86 156 l 86 460 l 86 764 l 390 764 m 390 678 l 261 678 l 261 633 l 261 590 l 390 590 l 521 590 l 521 633 l 521 678 l 390 678 z "},"\u000f":{"ha":694,"x_min":0,"x_max":694,"o":"m 347 678 l 433 678 l 433 590 l 433 503 l 478 503 l 521 503 l 521 547 l 521 590 l 608 590 l 694 590 l 694 547 l 694 503 l 651 503 l 608 503 l 608 460 l 608 417 l 651 417 l 694 417 l 694 331 l 694 243 l 651 243 l 608 243 l 608 200 l 608 156 l 651 156 l 694 156 l 694 113 l 694 69 l 608 69 l 521 69 l 521 113 l 521 156 l 478 156 l 433 156 l 433 69 l 433 -17 l 347 -17 l 261 -17 l 261 69 l 261 156 l 217 156 l 174 156 l 174 113 l 174 69 l 86 69 l 0 69 l 0 113 l 0 156 l 43 156 l 86 156 l 86 200 l 86 243 l 43 243 l 0 243 l 0 331 l 0 417 l 43 417 l 86 417 l 86 460 l 86 503 l 43 503 l 0 503 l 0 547 l 0 590 l 86 590 l 174 590 l 174 547 l 174 503 l 217 503 l 261 503 l 261 590 l 261 678 l 347 678 m 347 417 l 261 417 l 261 331 l 261 243 l 347 243 l 433 243 l 433 331 l 433 417 l 347 417 z "},"\u0010":{"ha":694,"x_min":0,"x_max":608,"o":"m 43 764 l 86 764 l 86 721 l 86 678 l 131 678 l 174 678 l 174 633 l 174 590 l 217 590 l 261 590 l 261 547 l 261 503 l 347 503 l 433 503 l 433 460 l 433 417 l 521 417 l 608 417 l 608 374 l 608 331 l 521 331 l 433 331 l 433 286 l 433 243 l 347 243 l 261 243 l 261 200 l 261 156 l 217 156 l 174 156 l 174 113 l 174 69 l 131 69 l 86 69 l 86 26 l 86 -17 l 43 -17 l 0 -17 l 0 374 l 0 764 l 43 764 z "},"\u0011":{"ha":694,"x_min":0,"x_max":608,"o":"m 564 764 l 608 764 l 608 374 l 608 -17 l 564 -17 l 521 -17 l 521 26 l 521 69 l 478 69 l 433 69 l 433 113 l 433 156 l 390 156 l 347 156 l 347 200 l 347 243 l 261 243 l 174 243 l 174 286 l 174 331 l 86 331 l 0 331 l 0 374 l 0 417 l 86 417 l 174 417 l 174 460 l 174 503 l 261 503 l 347 503 l 347 547 l 347 590 l 390 590 l 433 590 l 433 633 l 433 678 l 478 678 l 521 678 l 521 721 l 521 764 l 564 764 z "},"\u0012":{"ha":694,"x_min":86,"x_max":608,"o":"m 347 764 l 433 764 l 433 721 l 433 678 l 478 678 l 521 678 l 521 633 l 521 590 l 564 590 l 608 590 l 608 547 l 608 503 l 521 503 l 433 503 l 433 374 l 433 243 l 521 243 l 608 243 l 608 200 l 608 156 l 564 156 l 521 156 l 521 113 l 521 69 l 478 69 l 433 69 l 433 26 l 433 -17 l 347 -17 l 261 -17 l 261 26 l 261 69 l 217 69 l 174 69 l 174 113 l 174 156 l 131 156 l 86 156 l 86 200 l 86 243 l 174 243 l 261 243 l 261 374 l 261 503 l 174 503 l 86 503 l 86 547 l 86 590 l 131 590 l 174 590 l 174 633 l 174 678 l 217 678 l 261 678 l 261 721 l 261 764 l 347 764 z "},"\u0013":{"ha":694,"x_min":86,"x_max":608,"o":"m 521 156 l 608 156 l 608 69 l 608 -17 l 521 -17 l 433 -17 l 433 69 l 433 156 l 521 156 m 174 156 l 261 156 l 261 69 l 261 -17 l 174 -17 l 86 -17 l 86 69 l 86 156 l 174 156 m 521 764 l 608 764 l 608 547 l 608 331 l 521 331 l 433 331 l 433 547 l 433 764 l 521 764 m 174 764 l 261 764 l 261 547 l 261 331 l 174 331 l 86 331 l 86 547 l 86 764 l 174 764 z "},"\u0014":{"ha":694,"x_min":0,"x_max":694,"o":"m 390 764 l 694 764 l 694 374 l 694 -17 l 608 -17 l 521 -17 l 521 331 l 521 678 l 478 678 l 433 678 l 433 331 l 433 -17 l 347 -17 l 261 -17 l 261 156 l 261 331 l 174 331 l 86 331 l 86 374 l 86 417 l 43 417 l 0 417 l 0 547 l 0 678 l 43 678 l 86 678 l 86 721 l 86 764 l 390 764 m 217 678 l 174 678 l 174 547 l 174 417 l 217 417 l 261 417 l 261 547 l 261 678 l 217 678 z "},"\u0015":{"ha":694,"x_min":0,"x_max":694,"o":"m 347 764 l 608 764 l 608 721 l 608 678 l 651 678 l 694 678 l 694 633 l 694 590 l 608 590 l 521 590 l 521 633 l 521 678 l 390 678 l 261 678 l 261 633 l 261 590 l 304 590 l 347 590 l 347 547 l 347 503 l 433 503 l 521 503 l 521 460 l 521 417 l 564 417 l 608 417 l 608 331 l 608 243 l 564 243 l 521 243 l 521 156 l 521 69 l 564 69 l 608 69 l 608 -17 l 608 -104 l 347 -104 l 86 -104 l 86 -61 l 86 -17 l 43 -17 l 0 -17 l 0 26 l 0 69 l 86 69 l 174 69 l 174 26 l 174 -17 l 304 -17 l 433 -17 l 433 26 l 433 69 l 390 69 l 347 69 l 347 113 l 347 156 l 261 156 l 174 156 l 174 200 l 174 243 l 131 243 l 86 243 l 86 331 l 86 417 l 131 417 l 174 417 l 174 503 l 174 590 l 131 590 l 86 590 l 86 678 l 86 764 l 347 764 m 347 417 l 261 417 l 261 331 l 261 243 l 347 243 l 433 243 l 433 331 l 433 417 l 347 417 z "},"\u0016":{"ha":694,"x_min":0,"x_max":608,"o":"m 304 243 l 608 243 l 608 113 l 608 -17 l 304 -17 l 0 -17 l 0 113 l 0 243 l 304 243 z "},"\u0017":{"ha":694,"x_min":86,"x_max":608,"o":"m 347 764 l 433 764 l 433 721 l 433 678 l 478 678 l 521 678 l 521 633 l 521 590 l 564 590 l 608 590 l 608 547 l 608 503 l 521 503 l 433 503 l 433 374 l 433 243 l 521 243 l 608 243 l 608 200 l 608 156 l 564 156 l 521 156 l 521 113 l 521 69 l 478 69 l 433 69 l 433 26 l 433 -17 l 521 -17 l 608 -17 l 608 -61 l 608 -104 l 347 -104 l 86 -104 l 86 -61 l 86 -17 l 174 -17 l 261 -17 l 261 26 l 261 69 l 217 69 l 174 69 l 174 113 l 174 156 l 131 156 l 86 156 l 86 200 l 86 243 l 174 243 l 261 243 l 261 374 l 261 503 l 174 503 l 86 503 l 86 547 l 86 590 l 131 590 l 174 590 l 174 633 l 174 678 l 217 678 l 261 678 l 261 721 l 261 764 l 347 764 z "},"\u0018":{"ha":694,"x_min":86,"x_max":608,"o":"m 347 764 l 433 764 l 433 721 l 433 678 l 478 678 l 521 678 l 521 633 l 521 590 l 564 590 l 608 590 l 608 547 l 608 503 l 521 503 l 433 503 l 433 243 l 433 -17 l 347 -17 l 261 -17 l 261 243 l 261 503 l 174 503 l 86 503 l 86 547 l 86 590 l 131 590 l 174 590 l 174 633 l 174 678 l 217 678 l 261 678 l 261 721 l 261 764 l 347 764 z "},"\u0019":{"ha":694,"x_min":86,"x_max":608,"o":"m 347 764 l 433 764 l 433 503 l 433 243 l 521 243 l 608 243 l 608 200 l 608 156 l 564 156 l 521 156 l 521 113 l 521 69 l 478 69 l 433 69 l 433 26 l 433 -17 l 347 -17 l 261 -17 l 261 26 l 261 69 l 217 69 l 174 69 l 174 113 l 174 156 l 131 156 l 86 156 l 86 200 l 86 243 l 174 243 l 261 243 l 261 503 l 261 764 l 347 764 z "},"\u001a":{"ha":694,"x_min":0,"x_max":608,"o":"m 347 590 l 433 590 l 433 547 l 433 503 l 478 503 l 521 503 l 521 460 l 521 417 l 564 417 l 608 417 l 608 374 l 608 331 l 564 331 l 521 331 l 521 286 l 521 243 l 478 243 l 433 243 l 433 200 l 433 156 l 347 156 l 261 156 l 261 200 l 261 243 l 304 243 l 347 243 l 347 286 l 347 331 l 174 331 l 0 331 l 0 374 l 0 417 l 174 417 l 347 417 l 347 460 l 347 503 l 304 503 l 261 503 l 261 547 l 261 590 l 347 590 z "},"\u001b":{"ha":694,"x_min":0,"x_max":608,"o":"m 261 590 l 347 590 l 347 547 l 347 503 l 304 503 l 261 503 l 261 460 l 261 417 l 433 417 l 608 417 l 608 374 l 608 331 l 433 331 l 261 331 l 261 286 l 261 243 l 304 243 l 347 243 l 347 200 l 347 156 l 261 156 l 174 156 l 174 200 l 174 243 l 131 243 l 86 243 l 86 286 l 86 331 l 43 331 l 0 331 l 0 374 l 0 417 l 43 417 l 86 417 l 86 460 l 86 503 l 131 503 l 174 503 l 174 547 l 174 590 l 261 590 z "},"\u001c":{"ha":694,"x_min":0,"x_max":608,"o":"m 86 503 l 174 503 l 174 374 l 174 243 l 390 243 l 608 243 l 608 200 l 608 156 l 304 156 l 0 156 l 0 331 l 0 503 l 86 503 z "},"\u001d":{"ha":694,"x_min":0,"x_max":694,"o":"m 217 590 l 261 590 l 261 503 l 261 417 l 347 417 l 433 417 l 433 503 l 433 590 l 478 590 l 521 590 l 521 547 l 521 503 l 564 503 l 608 503 l 608 460 l 608 417 l 651 417 l 694 417 l 694 374 l 694 331 l 651 331 l 608 331 l 608 286 l 608 243 l 564 243 l 521 243 l 521 200 l 521 156 l 478 156 l 433 156 l 433 243 l 433 331 l 347 331 l 261 331 l 261 243 l 261 156 l 217 156 l 174 156 l 174 200 l 174 243 l 131 243 l 86 243 l 86 286 l 86 331 l 43 331 l 0 331 l 0 374 l 0 417 l 43 417 l 86 417 l 86 460 l 86 503 l 131 503 l 174 503 l 174 547 l 174 590 l 217 590 z "},"\u001e":{"ha":694,"x_min":0,"x_max":608,"o":"m 304 678 l 347 678 l 347 590 l 347 503 l 390 503 l 433 503 l 433 417 l 433 331 l 478 331 l 521 331 l 521 243 l 521 156 l 564 156 l 608 156 l 608 69 l 608 -17 l 304 -17 l 0 -17 l 0 69 l 0 156 l 43 156 l 86 156 l 86 243 l 86 331 l 131 331 l 174 331 l 174 417 l 174 503 l 217 503 l 261 503 l 261 590 l 261 678 l 304 678 z "},"\u001f":{"ha":694,"x_min":0,"x_max":608,"o":"m 304 678 l 608 678 l 608 590 l 608 503 l 564 503 l 521 503 l 521 417 l 521 331 l 478 331 l 433 331 l 433 243 l 433 156 l 390 156 l 347 156 l 347 69 l 347 -17 l 304 -17 l 261 -17 l 261 69 l 261 156 l 217 156 l 174 156 l 174 243 l 174 331 l 131 331 l 86 331 l 86 417 l 86 503 l 43 503 l 0 503 l 0 590 l 0 678 l 304 678 z "}," ":{"ha":694,"x_min":0,"x_max":0,"o":""},"!":{"ha":694,"x_min":86,"x_max":435,"o":"m 261 156 l 347 156 l 347 69 l 347 -17 l 261 -17 l 174 -17 l 174 69 l 174 156 l 261 156 m 261 764 l 347 764 l 347 721 l 347 678 l 390 678 l 433 678 l 433 547 l 433 417 l 390 417 l 347 417 l 347 331 l 347 243 l 261 243 l 174 243 l 174 331 l 174 417 l 131 417 l 86 417 l 86 547 l 86 678 l 131 678 l 174 678 l 174 721 l 174 764 l 261 764 z "},"\"":{"ha":694,"x_min":86,"x_max":608,"o":"m 521 764 l 608 764 l 608 633 l 608 503 l 564 503 l 521 503 l 521 460 l 521 417 l 478 417 l 433 417 l 433 590 l 433 764 l 521 764 m 174 764 l 261 764 l 261 590 l 261 417 l 217 417 l 174 417 l 174 460 l 174 503 l 131 503 l 86 503 l 86 633 l 86 764 l 174 764 z "},"#":{"ha":694,"x_min":0,"x_max":608,"o":"m 174 764 l 261 764 l 261 678 l 261 590 l 304 590 l 347 590 l 347 678 l 347 764 l 433 764 l 521 764 l 521 678 l 521 590 l 564 590 l 608 590 l 608 547 l 608 503 l 564 503 l 521 503 l 521 374 l 521 243 l 564 243 l 608 243 l 608 200 l 608 156 l 564 156 l 521 156 l 521 69 l 521 -17 l 433 -17 l 347 -17 l 347 69 l 347 156 l 304 156 l 261 156 l 261 69 l 261 -17 l 174 -17 l 86 -17 l 86 69 l 86 156 l 43 156 l 0 156 l 0 200 l 0 243 l 43 243 l 86 243 l 86 374 l 86 503 l 43 503 l 0 503 l 0 547 l 0 590 l 43 590 l 86 590 l 86 678 l 86 764 l 174 764 m 304 503 l 261 503 l 261 374 l 261 243 l 304 243 l 347 243 l 347 374 l 347 503 l 304 503 z "},"$":{"ha":694,"x_min":0,"x_max":521,"o":"m 261 850 l 347 850 l 347 764 l 347 678 l 433 678 l 521 678 l 521 633 l 521 590 l 347 590 l 174 590 l 174 503 l 174 417 l 304 417 l 433 417 l 433 374 l 433 331 l 478 331 l 521 331 l 521 243 l 521 156 l 478 156 l 433 156 l 433 113 l 433 69 l 390 69 l 347 69 l 347 -17 l 347 -104 l 261 -104 l 174 -104 l 174 -17 l 174 69 l 86 69 l 0 69 l 0 113 l 0 156 l 174 156 l 347 156 l 347 243 l 347 331 l 217 331 l 86 331 l 86 374 l 86 417 l 43 417 l 0 417 l 0 503 l 0 590 l 43 590 l 86 590 l 86 633 l 86 678 l 131 678 l 174 678 l 174 764 l 174 850 l 261 850 z "},"%":{"ha":694,"x_min":0,"x_max":521,"o":"m 433 156 l 521 156 l 521 69 l 521 -17 l 433 -17 l 347 -17 l 347 69 l 347 156 l 433 156 m 478 590 l 521 590 l 521 503 l 521 417 l 478 417 l 433 417 l 433 374 l 433 331 l 390 331 l 347 331 l 347 286 l 347 243 l 304 243 l 261 243 l 261 200 l 261 156 l 217 156 l 174 156 l 174 113 l 174 69 l 131 69 l 86 69 l 86 26 l 86 -17 l 43 -17 l 0 -17 l 0 69 l 0 156 l 43 156 l 86 156 l 86 200 l 86 243 l 131 243 l 174 243 l 174 286 l 174 331 l 217 331 l 261 331 l 261 374 l 261 417 l 304 417 l 347 417 l 347 460 l 347 503 l 390 503 l 433 503 l 433 547 l 433 590 l 478 590 m 86 590 l 174 590 l 174 503 l 174 417 l 86 417 l 0 417 l 0 503 l 0 590 l 86 590 z "},"&":{"ha":694,"x_min":0,"x_max":608,"o":"m 217 764 l 347 764 l 347 721 l 347 678 l 390 678 l 433 678 l 433 590 l 433 503 l 390 503 l 347 503 l 347 460 l 347 417 l 390 417 l 433 417 l 433 374 l 433 331 l 478 331 l 521 331 l 521 374 l 521 417 l 564 417 l 608 417 l 608 331 l 608 243 l 564 243 l 521 243 l 521 156 l 521 69 l 564 69 l 608 69 l 608 26 l 608 -17 l 521 -17 l 433 -17 l 433 26 l 433 69 l 390 69 l 347 69 l 347 26 l 347 -17 l 217 -17 l 86 -17 l 86 26 l 86 69 l 43 69 l 0 69 l 0 243 l 0 417 l 43 417 l 86 417 l 86 460 l 86 503 l 43 503 l 0 503 l 0 590 l 0 678 l 43 678 l 86 678 l 86 721 l 86 764 l 217 764 m 217 678 l 174 678 l 174 590 l 174 503 l 217 503 l 261 503 l 261 590 l 261 678 l 217 678 m 217 331 l 174 331 l 174 200 l 174 69 l 217 69 l 261 69 l 261 113 l 261 156 l 304 156 l 347 156 l 347 200 l 347 243 l 304 243 l 261 243 l 261 286 l 261 331 l 217 331 z "},"'":{"ha":694,"x_min":86,"x_max":347,"o":"m 261 764 l 347 764 l 347 633 l 347 503 l 304 503 l 261 503 l 261 460 l 261 417 l 174 417 l 86 417 l 86 460 l 86 503 l 131 503 l 174 503 l 174 633 l 174 764 l 261 764 z "},"(":{"ha":694,"x_min":86,"x_max":521,"o":"m 433 764 l 521 764 l 521 721 l 521 678 l 478 678 l 433 678 l 433 633 l 433 590 l 390 590 l 347 590 l 347 547 l 347 503 l 304 503 l 261 503 l 261 374 l 261 243 l 304 243 l 347 243 l 347 200 l 347 156 l 390 156 l 433 156 l 433 113 l 433 69 l 478 69 l 521 69 l 521 26 l 521 -17 l 433 -17 l 347 -17 l 347 26 l 347 69 l 304 69 l 261 69 l 261 113 l 261 156 l 217 156 l 174 156 l 174 200 l 174 243 l 131 243 l 86 243 l 86 374 l 86 503 l 131 503 l 174 503 l 174 547 l 174 590 l 217 590 l 261 590 l 261 633 l 261 678 l 304 678 l 347 678 l 347 721 l 347 764 l 433 764 z "},")":{"ha":694,"x_min":86,"x_max":521,"o":"m 174 764 l 261 764 l 261 721 l 261 678 l 304 678 l 347 678 l 347 633 l 347 590 l 390 590 l 433 590 l 433 547 l 433 503 l 478 503 l 521 503 l 521 374 l 521 243 l 478 243 l 433 243 l 433 200 l 433 156 l 390 156 l 347 156 l 347 113 l 347 69 l 304 69 l 261 69 l 261 26 l 261 -17 l 174 -17 l 86 -17 l 86 26 l 86 69 l 131 69 l 174 69 l 174 113 l 174 156 l 217 156 l 261 156 l 261 200 l 261 243 l 304 243 l 347 243 l 347 374 l 347 503 l 304 503 l 261 503 l 261 547 l 261 590 l 217 590 l 174 590 l 174 633 l 174 678 l 131 678 l 86 678 l 86 721 l 86 764 l 174 764 z "},"*":{"ha":694,"x_min":0,"x_max":694,"o":"m 174 590 l 261 590 l 261 547 l 261 503 l 347 503 l 433 503 l 433 547 l 433 590 l 521 590 l 608 590 l 608 547 l 608 503 l 564 503 l 521 503 l 521 460 l 521 417 l 608 417 l 694 417 l 694 374 l 694 331 l 608 331 l 521 331 l 521 286 l 521 243 l 564 243 l 608 243 l 608 200 l 608 156 l 521 156 l 433 156 l 433 200 l 433 243 l 347 243 l 261 243 l 261 200 l 261 156 l 174 156 l 86 156 l 86 200 l 86 243 l 131 243 l 174 243 l 174 286 l 174 331 l 86 331 l 0 331 l 0 374 l 0 417 l 86 417 l 174 417 l 174 460 l 174 503 l 131 503 l 86 503 l 86 547 l 86 590 l 174 590 z "},"+":{"ha":694,"x_min":86,"x_max":608,"o":"m 347 590 l 433 590 l 433 503 l 433 417 l 521 417 l 608 417 l 608 374 l 608 331 l 521 331 l 433 331 l 433 243 l 433 156 l 347 156 l 261 156 l 261 243 l 261 331 l 174 331 l 86 331 l 86 374 l 86 417 l 174 417 l 261 417 l 261 503 l 261 590 l 347 590 z "},",":{"ha":694,"x_min":86,"x_max":435,"o":"m 304 156 l 433 156 l 433 69 l 433 -17 l 347 -17 l 261 -17 l 261 -61 l 261 -104 l 174 -104 l 86 -104 l 86 -61 l 86 -17 l 131 -17 l 174 -17 l 174 69 l 174 156 l 304 156 z "},"-":{"ha":694,"x_min":0,"x_max":608,"o":"m 304 417 l 608 417 l 608 374 l 608 331 l 304 331 l 0 331 l 0 374 l 0 417 l 304 417 z "},".":{"ha":694,"x_min":174,"x_max":435,"o":"m 304 156 l 433 156 l 433 69 l 433 -17 l 304 -17 l 174 -17 l 174 69 l 174 156 l 304 156 z "},"/":{"ha":694,"x_min":0,"x_max":608,"o":"m 564 678 l 608 678 l 608 590 l 608 503 l 564 503 l 521 503 l 521 460 l 521 417 l 478 417 l 433 417 l 433 374 l 433 331 l 390 331 l 347 331 l 347 286 l 347 243 l 304 243 l 261 243 l 261 200 l 261 156 l 217 156 l 174 156 l 174 113 l 174 69 l 131 69 l 86 69 l 86 26 l 86 -17 l 43 -17 l 0 -17 l 0 69 l 0 156 l 43 156 l 86 156 l 86 200 l 86 243 l 131 243 l 174 243 l 174 286 l 174 331 l 217 331 l 261 331 l 261 374 l 261 417 l 304 417 l 347 417 l 347 460 l 347 503 l 390 503 l 433 503 l 433 547 l 433 590 l 478 590 l 521 590 l 521 633 l 521 678 l 564 678 z "},":":{"ha":694,"x_min":174,"x_max":435,"o":"m 304 243 l 433 243 l 433 156 l 433 69 l 304 69 l 174 69 l 174 156 l 174 243 l 304 243 m 304 590 l 433 590 l 433 503 l 433 417 l 304 417 l 174 417 l 174 503 l 174 590 l 304 590 z "},";":{"ha":694,"x_min":174,"x_max":435,"o":"m 304 243 l 433 243 l 433 113 l 433 -17 l 390 -17 l 347 -17 l 347 -61 l 347 -104 l 261 -104 l 174 -104 l 174 -61 l 174 -17 l 217 -17 l 261 -17 l 261 26 l 261 69 l 217 69 l 174 69 l 174 156 l 174 243 l 304 243 m 304 590 l 433 590 l 433 503 l 433 417 l 304 417 l 174 417 l 174 503 l 174 590 l 304 590 z "},"<":{"ha":694,"x_min":0,"x_max":521,"o":"m 433 764 l 521 764 l 521 721 l 521 678 l 478 678 l 433 678 l 433 633 l 433 590 l 390 590 l 347 590 l 347 547 l 347 503 l 304 503 l 261 503 l 261 460 l 261 417 l 217 417 l 174 417 l 174 374 l 174 331 l 217 331 l 261 331 l 261 286 l 261 243 l 304 243 l 347 243 l 347 200 l 347 156 l 390 156 l 433 156 l 433 113 l 433 69 l 478 69 l 521 69 l 521 26 l 521 -17 l 433 -17 l 347 -17 l 347 26 l 347 69 l 304 69 l 261 69 l 261 113 l 261 156 l 217 156 l 174 156 l 174 200 l 174 243 l 131 243 l 86 243 l 86 286 l 86 331 l 43 331 l 0 331 l 0 374 l 0 417 l 43 417 l 86 417 l 86 460 l 86 503 l 131 503 l 174 503 l 174 547 l 174 590 l 217 590 l 261 590 l 261 633 l 261 678 l 304 678 l 347 678 l 347 721 l 347 764 l 433 764 z "},"=":{"ha":694,"x_min":86,"x_max":608,"o":"m 347 331 l 608 331 l 608 286 l 608 243 l 347 243 l 86 243 l 86 286 l 86 331 l 347 331 m 347 503 l 608 503 l 608 460 l 608 417 l 347 417 l 86 417 l 86 460 l 86 503 l 347 503 z "},">":{"ha":694,"x_min":86,"x_max":608,"o":"m 174 764 l 261 764 l 261 721 l 261 678 l 304 678 l 347 678 l 347 633 l 347 590 l 390 590 l 433 590 l 433 547 l 433 503 l 478 503 l 521 503 l 521 460 l 521 417 l 564 417 l 608 417 l 608 374 l 608 331 l 564 331 l 521 331 l 521 286 l 521 243 l 478 243 l 433 243 l 433 200 l 433 156 l 390 156 l 347 156 l 347 113 l 347 69 l 304 69 l 261 69 l 261 26 l 261 -17 l 174 -17 l 86 -17 l 86 26 l 86 69 l 131 69 l 174 69 l 174 113 l 174 156 l 217 156 l 261 156 l 261 200 l 261 243 l 304 243 l 347 243 l 347 286 l 347 331 l 390 331 l 433 331 l 433 374 l 433 417 l 390 417 l 347 417 l 347 460 l 347 503 l 304 503 l 261 503 l 261 547 l 261 590 l 217 590 l 174 590 l 174 633 l 174 678 l 131 678 l 86 678 l 86 721 l 86 764 l 174 764 z "},"?":{"ha":694,"x_min":0,"x_max":521,"o":"m 261 156 l 347 156 l 347 69 l 347 -17 l 261 -17 l 174 -17 l 174 69 l 174 156 l 261 156 m 261 764 l 433 764 l 433 721 l 433 678 l 478 678 l 521 678 l 521 590 l 521 503 l 478 503 l 433 503 l 433 460 l 433 417 l 390 417 l 347 417 l 347 331 l 347 243 l 261 243 l 174 243 l 174 331 l 174 417 l 217 417 l 261 417 l 261 460 l 261 503 l 304 503 l 347 503 l 347 590 l 347 678 l 261 678 l 174 678 l 174 633 l 174 590 l 86 590 l 0 590 l 0 633 l 0 678 l 43 678 l 86 678 l 86 721 l 86 764 l 261 764 z "},"@":{"ha":694,"x_min":0,"x_max":608,"o":"m 304 764 l 521 764 l 521 721 l 521 678 l 564 678 l 608 678 l 608 460 l 608 243 l 433 243 l 261 243 l 261 374 l 261 503 l 347 503 l 433 503 l 433 590 l 433 678 l 304 678 l 174 678 l 174 374 l 174 69 l 347 69 l 521 69 l 521 26 l 521 -17 l 304 -17 l 86 -17 l 86 26 l 86 69 l 43 69 l 0 69 l 0 374 l 0 678 l 43 678 l 86 678 l 86 721 l 86 764 l 304 764 z "},"A":{"ha":694,"x_min":0,"x_max":521,"o":"m 261 764 l 347 764 l 347 721 l 347 678 l 390 678 l 433 678 l 433 633 l 433 590 l 478 590 l 521 590 l 521 286 l 521 -17 l 433 -17 l 347 -17 l 347 113 l 347 243 l 261 243 l 174 243 l 174 113 l 174 -17 l 86 -17 l 0 -17 l 0 286 l 0 590 l 43 590 l 86 590 l 86 633 l 86 678 l 131 678 l 174 678 l 174 721 l 174 764 l 261 764 m 261 590 l 174 590 l 174 460 l 174 331 l 261 331 l 347 331 l 347 460 l 347 590 l 261 590 z "},"B":{"ha":694,"x_min":0,"x_max":608,"o":"m 261 764 l 521 764 l 521 721 l 521 678 l 564 678 l 608 678 l 608 547 l 608 417 l 564 417 l 521 417 l 521 374 l 521 331 l 564 331 l 608 331 l 608 200 l 608 69 l 564 69 l 521 69 l 521 26 l 521 -17 l 261 -17 l 0 -17 l 0 26 l 0 69 l 43 69 l 86 69 l 86 374 l 86 678 l 43 678 l 0 678 l 0 721 l 0 764 l 261 764 m 347 678 l 261 678 l 261 547 l 261 417 l 347 417 l 433 417 l 433 547 l 433 678 l 347 678 m 347 331 l 261 331 l 261 200 l 261 69 l 347 69 l 433 69 l 433 200 l 433 331 l 347 331 z "},"C":{"ha":694,"x_min":0,"x_max":608,"o":"m 347 764 l 521 764 l 521 721 l 521 678 l 564 678 l 608 678 l 608 590 l 608 503 l 521 503 l 433 503 l 433 590 l 433 678 l 347 678 l 261 678 l 261 633 l 261 590 l 217 590 l 174 590 l 174 374 l 174 156 l 217 156 l 261 156 l 261 113 l 261 69 l 347 69 l 433 69 l 433 156 l 433 243 l 521 243 l 608 243 l 608 156 l 608 69 l 564 69 l 521 69 l 521 26 l 521 -17 l 347 -17 l 174 -17 l 174 26 l 174 69 l 131 69 l 86 69 l 86 113 l 86 156 l 43 156 l 0 156 l 0 374 l 0 590 l 43 590 l 86 590 l 86 633 l 86 678 l 131 678 l 174 678 l 174 721 l 174 764 l 347 764 z "},"D":{"ha":694,"x_min":0,"x_max":608,"o":"m 217 764 l 433 764 l 433 721 l 433 678 l 478 678 l 521 678 l 521 633 l 521 590 l 564 590 l 608 590 l 608 374 l 608 156 l 564 156 l 521 156 l 521 113 l 521 69 l 478 69 l 433 69 l 433 26 l 433 -17 l 217 -17 l 0 -17 l 0 26 l 0 69 l 43 69 l 86 69 l 86 374 l 86 678 l 43 678 l 0 678 l 0 721 l 0 764 l 217 764 m 304 678 l 261 678 l 261 374 l 261 69 l 304 69 l 347 69 l 347 113 l 347 156 l 390 156 l 433 156 l 433 374 l 433 590 l 390 590 l 347 590 l 347 633 l 347 678 l 304 678 z "},"E":{"ha":694,"x_min":0,"x_max":608,"o":"m 304 764 l 608 764 l 608 678 l 608 590 l 564 590 l 521 590 l 521 633 l 521 678 l 390 678 l 261 678 l 261 547 l 261 417 l 347 417 l 433 417 l 433 460 l 433 503 l 478 503 l 521 503 l 521 374 l 521 243 l 478 243 l 433 243 l 433 286 l 433 331 l 347 331 l 261 331 l 261 200 l 261 69 l 390 69 l 521 69 l 521 113 l 521 156 l 564 156 l 608 156 l 608 69 l 608 -17 l 304 -17 l 0 -17 l 0 26 l 0 69 l 43 69 l 86 69 l 86 374 l 86 678 l 43 678 l 0 678 l 0 721 l 0 764 l 304 764 z "},"F":{"ha":694,"x_min":0,"x_max":608,"o":"m 304 764 l 608 764 l 608 633 l 608 503 l 564 503 l 521 503 l 521 374 l 521 243 l 478 243 l 433 243 l 433 286 l 433 331 l 347 331 l 261 331 l 261 200 l 261 69 l 304 69 l 347 69 l 347 26 l 347 -17 l 174 -17 l 0 -17 l 0 26 l 0 69 l 43 69 l 86 69 l 86 374 l 86 678 l 43 678 l 0 678 l 0 721 l 0 764 l 304 764 m 347 678 l 261 678 l 261 547 l 261 417 l 347 417 l 433 417 l 433 460 l 433 503 l 478 503 l 521 503 l 521 547 l 521 590 l 478 590 l 433 590 l 433 633 l 433 678 l 347 678 z "},"G":{"ha":694,"x_min":0,"x_max":608,"o":"m 347 764 l 521 764 l 521 721 l 521 678 l 564 678 l 608 678 l 608 590 l 608 503 l 521 503 l 433 503 l 433 590 l 433 678 l 347 678 l 261 678 l 261 633 l 261 590 l 217 590 l 174 590 l 174 374 l 174 156 l 217 156 l 261 156 l 261 113 l 261 69 l 347 69 l 433 69 l 433 156 l 433 243 l 390 243 l 347 243 l 347 286 l 347 331 l 478 331 l 608 331 l 608 156 l 608 -17 l 390 -17 l 174 -17 l 174 26 l 174 69 l 131 69 l 86 69 l 86 113 l 86 156 l 43 156 l 0 156 l 0 374 l 0 590 l 43 590 l 86 590 l 86 633 l 86 678 l 131 678 l 174 678 l 174 721 l 174 764 l 347 764 z "},"H":{"ha":694,"x_min":0,"x_max":521,"o":"m 86 764 l 174 764 l 174 590 l 174 417 l 261 417 l 347 417 l 347 590 l 347 764 l 433 764 l 521 764 l 521 374 l 521 -17 l 433 -17 l 347 -17 l 347 156 l 347 331 l 261 331 l 174 331 l 174 156 l 174 -17 l 86 -17 l 0 -17 l 0 374 l 0 764 l 86 764 z "},"I":{"ha":694,"x_min":86,"x_max":435,"o":"m 261 764 l 433 764 l 433 721 l 433 678 l 390 678 l 347 678 l 347 374 l 347 69 l 390 69 l 433 69 l 433 26 l 433 -17 l 261 -17 l 86 -17 l 86 26 l 86 69 l 131 69 l 174 69 l 174 374 l 174 678 l 131 678 l 86 678 l 86 721 l 86 764 l 261 764 z "},"J":{"ha":694,"x_min":0,"x_max":608,"o":"m 433 764 l 608 764 l 608 721 l 608 678 l 564 678 l 521 678 l 521 374 l 521 69 l 478 69 l 433 69 l 433 26 l 433 -17 l 261 -17 l 86 -17 l 86 26 l 86 69 l 43 69 l 0 69 l 0 200 l 0 331 l 86 331 l 174 331 l 174 200 l 174 69 l 261 69 l 347 69 l 347 374 l 347 678 l 304 678 l 261 678 l 261 721 l 261 764 l 433 764 z "},"K":{"ha":694,"x_min":0,"x_max":608,"o":"m 131 764 l 261 764 l 261 590 l 261 417 l 304 417 l 347 417 l 347 503 l 347 590 l 390 590 l 433 590 l 433 678 l 433 764 l 521 764 l 608 764 l 608 678 l 608 590 l 564 590 l 521 590 l 521 503 l 521 417 l 478 417 l 433 417 l 433 374 l 433 331 l 478 331 l 521 331 l 521 243 l 521 156 l 564 156 l 608 156 l 608 69 l 608 -17 l 521 -17 l 433 -17 l 433 69 l 433 156 l 390 156 l 347 156 l 347 243 l 347 331 l 304 331 l 261 331 l 261 156 l 261 -17 l 131 -17 l 0 -17 l 0 26 l 0 69 l 43 69 l 86 69 l 86 374 l 86 678 l 43 678 l 0 678 l 0 721 l 0 764 l 131 764 z "},"L":{"ha":694,"x_min":0,"x_max":608,"o":"m 174 764 l 347 764 l 347 721 l 347 678 l 304 678 l 261 678 l 261 374 l 261 69 l 347 69 l 433 69 l 433 156 l 433 243 l 478 243 l 521 243 l 521 286 l 521 331 l 564 331 l 608 331 l 608 156 l 608 -17 l 304 -17 l 0 -17 l 0 26 l 0 69 l 43 69 l 86 69 l 86 374 l 86 678 l 43 678 l 0 678 l 0 721 l 0 764 l 174 764 z "},"M":{"ha":694,"x_min":0,"x_max":608,"o":"m 86 764 l 174 764 l 174 721 l 174 678 l 217 678 l 261 678 l 261 633 l 261 590 l 304 590 l 347 590 l 347 633 l 347 678 l 390 678 l 433 678 l 433 721 l 433 764 l 521 764 l 608 764 l 608 374 l 608 -17 l 521 -17 l 433 -17 l 433 200 l 433 417 l 390 417 l 347 417 l 347 374 l 347 331 l 304 331 l 261 331 l 261 374 l 261 417 l 217 417 l 174 417 l 174 200 l 174 -17 l 86 -17 l 0 -17 l 0 374 l 0 764 l 86 764 z "},"N":{"ha":694,"x_min":0,"x_max":608,"o":"m 86 764 l 174 764 l 174 678 l 174 590 l 217 590 l 261 590 l 261 547 l 261 503 l 304 503 l 347 503 l 347 460 l 347 417 l 390 417 l 433 417 l 433 590 l 433 764 l 521 764 l 608 764 l 608 374 l 608 -17 l 521 -17 l 433 -17 l 433 69 l 433 156 l 390 156 l 347 156 l 347 200 l 347 243 l 304 243 l 261 243 l 261 286 l 261 331 l 217 331 l 174 331 l 174 156 l 174 -17 l 86 -17 l 0 -17 l 0 374 l 0 764 l 86 764 z "},"O":{"ha":694,"x_min":0,"x_max":608,"o":"m 304 764 l 433 764 l 433 721 l 433 678 l 478 678 l 521 678 l 521 633 l 521 590 l 564 590 l 608 590 l 608 374 l 608 156 l 564 156 l 521 156 l 521 113 l 521 69 l 478 69 l 433 69 l 433 26 l 433 -17 l 304 -17 l 174 -17 l 174 26 l 174 69 l 131 69 l 86 69 l 86 113 l 86 156 l 43 156 l 0 156 l 0 374 l 0 590 l 43 590 l 86 590 l 86 633 l 86 678 l 131 678 l 174 678 l 174 721 l 174 764 l 304 764 m 304 678 l 261 678 l 261 633 l 261 590 l 217 590 l 174 590 l 174 374 l 174 156 l 217 156 l 261 156 l 261 113 l 261 69 l 304 69 l 347 69 l 347 113 l 347 156 l 390 156 l 433 156 l 433 374 l 433 590 l 390 590 l 347 590 l 347 633 l 347 678 l 304 678 z "},"P":{"ha":694,"x_min":0,"x_max":608,"o":"m 261 764 l 521 764 l 521 721 l 521 678 l 564 678 l 608 678 l 608 547 l 608 417 l 564 417 l 521 417 l 521 374 l 521 331 l 390 331 l 261 331 l 261 200 l 261 69 l 304 69 l 347 69 l 347 26 l 347 -17 l 174 -17 l 0 -17 l 0 26 l 0 69 l 43 69 l 86 69 l 86 374 l 86 678 l 43 678 l 0 678 l 0 721 l 0 764 l 261 764 m 347 678 l 261 678 l 261 547 l 261 417 l 347 417 l 433 417 l 433 547 l 433 678 l 347 678 z "},"Q":{"ha":694,"x_min":0,"x_max":608,"o":"m 304 764 l 433 764 l 433 721 l 433 678 l 478 678 l 521 678 l 521 633 l 521 590 l 564 590 l 608 590 l 608 374 l 608 156 l 564 156 l 521 156 l 521 69 l 521 -17 l 564 -17 l 608 -17 l 608 -61 l 608 -104 l 433 -104 l 261 -104 l 261 -61 l 261 -17 l 304 -17 l 347 -17 l 347 26 l 347 69 l 217 69 l 86 69 l 86 113 l 86 156 l 43 156 l 0 156 l 0 374 l 0 590 l 43 590 l 86 590 l 86 633 l 86 678 l 131 678 l 174 678 l 174 721 l 174 764 l 304 764 m 304 678 l 261 678 l 261 633 l 261 590 l 217 590 l 174 590 l 174 374 l 174 156 l 217 156 l 261 156 l 261 200 l 261 243 l 304 243 l 347 243 l 347 286 l 347 331 l 390 331 l 433 331 l 433 460 l 433 590 l 390 590 l 347 590 l 347 633 l 347 678 l 304 678 z "},"R":{"ha":694,"x_min":0,"x_max":608,"o":"m 261 764 l 521 764 l 521 721 l 521 678 l 564 678 l 608 678 l 608 547 l 608 417 l 564 417 l 521 417 l 521 331 l 521 243 l 564 243 l 608 243 l 608 113 l 608 -17 l 521 -17 l 433 -17 l 433 113 l 433 243 l 390 243 l 347 243 l 347 286 l 347 331 l 304 331 l 261 331 l 261 156 l 261 -17 l 131 -17 l 0 -17 l 0 26 l 0 69 l 43 69 l 86 69 l 86 374 l 86 678 l 43 678 l 0 678 l 0 721 l 0 764 l 261 764 m 347 678 l 261 678 l 261 547 l 261 417 l 347 417 l 433 417 l 433 547 l 433 678 l 347 678 z "},"S":{"ha":694,"x_min":0,"x_max":521,"o":"m 261 764 l 433 764 l 433 721 l 433 678 l 478 678 l 521 678 l 521 590 l 521 503 l 433 503 l 347 503 l 347 590 l 347 678 l 261 678 l 174 678 l 174 547 l 174 417 l 261 417 l 347 417 l 347 374 l 347 331 l 390 331 l 433 331 l 433 286 l 433 243 l 478 243 l 521 243 l 521 156 l 521 69 l 478 69 l 433 69 l 433 26 l 433 -17 l 261 -17 l 86 -17 l 86 26 l 86 69 l 43 69 l 0 69 l 0 156 l 0 243 l 86 243 l 174 243 l 174 156 l 174 69 l 261 69 l 347 69 l 347 156 l 347 243 l 304 243 l 261 243 l 261 286 l 261 331 l 174 331 l 86 331 l 86 374 l 86 417 l 43 417 l 0 417 l 0 547 l 0 678 l 43 678 l 86 678 l 86 721 l 86 764 l 261 764 z "},"T":{"ha":694,"x_min":0,"x_max":521,"o":"m 261 764 l 521 764 l 521 678 l 521 590 l 478 590 l 433 590 l 433 633 l 433 678 l 390 678 l 347 678 l 347 374 l 347 69 l 390 69 l 433 69 l 433 26 l 433 -17 l 261 -17 l 86 -17 l 86 26 l 86 69 l 131 69 l 174 69 l 174 374 l 174 678 l 131 678 l 86 678 l 86 633 l 86 590 l 43 590 l 0 590 l 0 678 l 0 764 l 261 764 z "},"U":{"ha":694,"x_min":0,"x_max":521,"o":"m 86 764 l 174 764 l 174 417 l 174 69 l 261 69 l 347 69 l 347 417 l 347 764 l 433 764 l 521 764 l 521 417 l 521 69 l 478 69 l 433 69 l 433 26 l 433 -17 l 261 -17 l 86 -17 l 86 26 l 86 69 l 43 69 l 0 69 l 0 417 l 0 764 l 86 764 z "},"V":{"ha":694,"x_min":0,"x_max":521,"o":"m 86 764 l 174 764 l 174 460 l 174 156 l 261 156 l 347 156 l 347 460 l 347 764 l 433 764 l 521 764 l 521 460 l 521 156 l 478 156 l 433 156 l 433 113 l 433 69 l 390 69 l 347 69 l 347 26 l 347 -17 l 261 -17 l 174 -17 l 174 26 l 174 69 l 131 69 l 86 69 l 86 113 l 86 156 l 43 156 l 0 156 l 0 460 l 0 764 l 86 764 z "},"W":{"ha":694,"x_min":0,"x_max":608,"o":"m 86 764 l 174 764 l 174 503 l 174 243 l 217 243 l 261 243 l 261 331 l 261 417 l 304 417 l 347 417 l 347 331 l 347 243 l 390 243 l 433 243 l 433 503 l 433 764 l 521 764 l 608 764 l 608 503 l 608 243 l 564 243 l 521 243 l 521 113 l 521 -17 l 433 -17 l 347 -17 l 347 113 l 347 243 l 304 243 l 261 243 l 261 113 l 261 -17 l 174 -17 l 86 -17 l 86 113 l 86 243 l 43 243 l 0 243 l 0 503 l 0 764 l 86 764 z "},"X":{"ha":694,"x_min":0,"x_max":521,"o":"m 86 764 l 174 764 l 174 633 l 174 503 l 261 503 l 347 503 l 347 633 l 347 764 l 433 764 l 521 764 l 521 633 l 521 503 l 478 503 l 433 503 l 433 460 l 433 417 l 390 417 l 347 417 l 347 374 l 347 331 l 390 331 l 433 331 l 433 286 l 433 243 l 478 243 l 521 243 l 521 113 l 521 -17 l 433 -17 l 347 -17 l 347 113 l 347 243 l 261 243 l 174 243 l 174 113 l 174 -17 l 86 -17 l 0 -17 l 0 113 l 0 243 l 43 243 l 86 243 l 86 286 l 86 331 l 131 331 l 174 331 l 174 374 l 174 417 l 131 417 l 86 417 l 86 460 l 86 503 l 43 503 l 0 503 l 0 633 l 0 764 l 86 764 z "},"Y":{"ha":694,"x_min":0,"x_max":521,"o":"m 86 764 l 174 764 l 174 590 l 174 417 l 261 417 l 347 417 l 347 590 l 347 764 l 433 764 l 521 764 l 521 590 l 521 417 l 478 417 l 433 417 l 433 374 l 433 331 l 390 331 l 347 331 l 347 200 l 347 69 l 390 69 l 433 69 l 433 26 l 433 -17 l 261 -17 l 86 -17 l 86 26 l 86 69 l 131 69 l 174 69 l 174 200 l 174 331 l 131 331 l 86 331 l 86 374 l 86 417 l 43 417 l 0 417 l 0 590 l 0 764 l 86 764 z "},"Z":{"ha":694,"x_min":0,"x_max":608,"o":"m 304 764 l 608 764 l 608 678 l 608 590 l 521 590 l 433 590 l 433 503 l 433 417 l 390 417 l 347 417 l 347 374 l 347 331 l 304 331 l 261 331 l 261 243 l 261 156 l 217 156 l 174 156 l 174 113 l 174 69 l 304 69 l 433 69 l 433 113 l 433 156 l 478 156 l 521 156 l 521 200 l 521 243 l 564 243 l 608 243 l 608 113 l 608 -17 l 304 -17 l 0 -17 l 0 69 l 0 156 l 43 156 l 86 156 l 86 243 l 86 331 l 131 331 l 174 331 l 174 374 l 174 417 l 217 417 l 261 417 l 261 503 l 261 590 l 304 590 l 347 590 l 347 633 l 347 678 l 261 678 l 174 678 l 174 633 l 174 590 l 131 590 l 86 590 l 86 547 l 86 503 l 43 503 l 0 503 l 0 633 l 0 764 l 304 764 z "},"[":{"ha":694,"x_min":174,"x_max":521,"o":"m 347 764 l 521 764 l 521 721 l 521 678 l 433 678 l 347 678 l 347 374 l 347 69 l 433 69 l 521 69 l 521 26 l 521 -17 l 347 -17 l 174 -17 l 174 374 l 174 764 l 347 764 z "},"\\":{"ha":694,"x_min":0,"x_max":608,"o":"m 43 678 l 86 678 l 86 633 l 86 590 l 131 590 l 174 590 l 174 547 l 174 503 l 217 503 l 261 503 l 261 460 l 261 417 l 304 417 l 347 417 l 347 374 l 347 331 l 390 331 l 433 331 l 433 286 l 433 243 l 478 243 l 521 243 l 521 200 l 521 156 l 564 156 l 608 156 l 608 69 l 608 -17 l 564 -17 l 521 -17 l 521 26 l 521 69 l 478 69 l 433 69 l 433 113 l 433 156 l 390 156 l 347 156 l 347 200 l 347 243 l 304 243 l 261 243 l 261 286 l 261 331 l 217 331 l 174 331 l 174 374 l 174 417 l 131 417 l 86 417 l 86 460 l 86 503 l 43 503 l 0 503 l 0 590 l 0 678 l 43 678 z "},"]":{"ha":694,"x_min":174,"x_max":521,"o":"m 347 764 l 521 764 l 521 374 l 521 -17 l 347 -17 l 174 -17 l 174 26 l 174 69 l 261 69 l 347 69 l 347 374 l 347 678 l 261 678 l 174 678 l 174 721 l 174 764 l 347 764 z "},"^":{"ha":694,"x_min":0,"x_max":608,"o":"m 304 850 l 347 850 l 347 807 l 347 764 l 390 764 l 433 764 l 433 721 l 433 678 l 478 678 l 521 678 l 521 633 l 521 590 l 564 590 l 608 590 l 608 547 l 608 503 l 521 503 l 433 503 l 433 547 l 433 590 l 390 590 l 347 590 l 347 633 l 347 678 l 304 678 l 261 678 l 261 633 l 261 590 l 217 590 l 174 590 l 174 547 l 174 503 l 86 503 l 0 503 l 0 547 l 0 590 l 43 590 l 86 590 l 86 633 l 86 678 l 131 678 l 174 678 l 174 721 l 174 764 l 217 764 l 261 764 l 261 807 l 261 850 l 304 850 z "},"_":{"ha":694,"x_min":0,"x_max":694,"o":"m 347 -17 l 694 -17 l 694 -61 l 694 -104 l 347 -104 l 0 -104 l 0 -61 l 0 -17 l 347 -17 z "},"`":{"ha":694,"x_min":174,"x_max":435,"o":"m 261 850 l 347 850 l 347 764 l 347 678 l 390 678 l 433 678 l 433 633 l 433 590 l 347 590 l 261 590 l 261 633 l 261 678 l 217 678 l 174 678 l 174 764 l 174 850 l 261 850 z "},"a":{"ha":694,"x_min":0,"x_max":608,"o":"m 261 503 l 433 503 l 433 460 l 433 417 l 478 417 l 521 417 l 521 243 l 521 69 l 564 69 l 608 69 l 608 26 l 608 -17 l 521 -17 l 433 -17 l 433 26 l 433 69 l 390 69 l 347 69 l 347 26 l 347 -17 l 217 -17 l 86 -17 l 86 26 l 86 69 l 43 69 l 0 69 l 0 156 l 0 243 l 43 243 l 86 243 l 86 286 l 86 331 l 217 331 l 347 331 l 347 374 l 347 417 l 217 417 l 86 417 l 86 460 l 86 503 l 261 503 m 261 243 l 174 243 l 174 156 l 174 69 l 261 69 l 347 69 l 347 156 l 347 243 l 261 243 z "},"b":{"ha":694,"x_min":0,"x_max":608,"o":"m 131 764 l 261 764 l 261 633 l 261 503 l 390 503 l 521 503 l 521 460 l 521 417 l 564 417 l 608 417 l 608 243 l 608 69 l 564 69 l 521 69 l 521 26 l 521 -17 l 390 -17 l 261 -17 l 261 26 l 261 69 l 217 69 l 174 69 l 174 26 l 174 -17 l 86 -17 l 0 -17 l 0 26 l 0 69 l 43 69 l 86 69 l 86 374 l 86 678 l 43 678 l 0 678 l 0 721 l 0 764 l 131 764 m 347 417 l 261 417 l 261 243 l 261 69 l 347 69 l 433 69 l 433 243 l 433 417 l 347 417 z "},"c":{"ha":694,"x_min":0,"x_max":521,"o":"m 261 503 l 433 503 l 433 460 l 433 417 l 478 417 l 521 417 l 521 374 l 521 331 l 433 331 l 347 331 l 347 374 l 347 417 l 261 417 l 174 417 l 174 243 l 174 69 l 261 69 l 347 69 l 347 113 l 347 156 l 433 156 l 521 156 l 521 113 l 521 69 l 478 69 l 433 69 l 433 26 l 433 -17 l 261 -17 l 86 -17 l 86 26 l 86 69 l 43 69 l 0 69 l 0 243 l 0 417 l 43 417 l 86 417 l 86 460 l 86 503 l 261 503 z "},"d":{"ha":694,"x_min":0,"x_max":608,"o":"m 390 764 l 521 764 l 521 417 l 521 69 l 564 69 l 608 69 l 608 26 l 608 -17 l 521 -17 l 433 -17 l 433 26 l 433 69 l 390 69 l 347 69 l 347 26 l 347 -17 l 217 -17 l 86 -17 l 86 26 l 86 69 l 43 69 l 0 69 l 0 243 l 0 417 l 43 417 l 86 417 l 86 460 l 86 503 l 217 503 l 347 503 l 347 590 l 347 678 l 304 678 l 261 678 l 261 721 l 261 764 l 390 764 m 261 417 l 174 417 l 174 243 l 174 69 l 261 69 l 347 69 l 347 243 l 347 417 l 261 417 z "},"e":{"ha":694,"x_min":0,"x_max":521,"o":"m 261 503 l 433 503 l 433 460 l 433 417 l 478 417 l 521 417 l 521 331 l 521 243 l 347 243 l 174 243 l 174 156 l 174 69 l 261 69 l 347 69 l 347 113 l 347 156 l 433 156 l 521 156 l 521 113 l 521 69 l 478 69 l 433 69 l 433 26 l 433 -17 l 261 -17 l 86 -17 l 86 26 l 86 69 l 43 69 l 0 69 l 0 243 l 0 417 l 43 417 l 86 417 l 86 460 l 86 503 l 261 503 m 261 417 l 174 417 l 174 374 l 174 331 l 261 331 l 347 331 l 347 374 l 347 417 l 261 417 z "},"f":{"ha":694,"x_min":0,"x_max":521,"o":"m 304 764 l 433 764 l 433 721 l 433 678 l 478 678 l 521 678 l 521 633 l 521 590 l 433 590 l 347 590 l 347 633 l 347 678 l 304 678 l 261 678 l 261 547 l 261 417 l 347 417 l 433 417 l 433 374 l 433 331 l 347 331 l 261 331 l 261 200 l 261 69 l 304 69 l 347 69 l 347 26 l 347 -17 l 174 -17 l 0 -17 l 0 26 l 0 69 l 43 69 l 86 69 l 86 200 l 86 331 l 43 331 l 0 331 l 0 374 l 0 417 l 43 417 l 86 417 l 86 547 l 86 678 l 131 678 l 174 678 l 174 721 l 174 764 l 304 764 z "},"g":{"ha":694,"x_min":0,"x_max":608,"o":"m 217 503 l 347 503 l 347 460 l 347 417 l 390 417 l 433 417 l 433 460 l 433 503 l 521 503 l 608 503 l 608 460 l 608 417 l 564 417 l 521 417 l 521 156 l 521 -104 l 478 -104 l 433 -104 l 433 -147 l 433 -192 l 261 -192 l 86 -192 l 86 -147 l 86 -104 l 43 -104 l 0 -104 l 0 -61 l 0 -17 l 86 -17 l 174 -17 l 174 -61 l 174 -104 l 261 -104 l 347 -104 l 347 -17 l 347 69 l 217 69 l 86 69 l 86 113 l 86 156 l 43 156 l 0 156 l 0 286 l 0 417 l 43 417 l 86 417 l 86 460 l 86 503 l 217 503 m 261 417 l 174 417 l 174 286 l 174 156 l 261 156 l 347 156 l 347 286 l 347 417 l 261 417 z "},"h":{"ha":694,"x_min":0,"x_max":608,"o":"m 131 764 l 261 764 l 261 590 l 261 417 l 304 417 l 347 417 l 347 460 l 347 503 l 433 503 l 521 503 l 521 460 l 521 417 l 564 417 l 608 417 l 608 200 l 608 -17 l 521 -17 l 433 -17 l 433 200 l 433 417 l 390 417 l 347 417 l 347 374 l 347 331 l 304 331 l 261 331 l 261 156 l 261 -17 l 131 -17 l 0 -17 l 0 26 l 0 69 l 43 69 l 86 69 l 86 374 l 86 678 l 43 678 l 0 678 l 0 721 l 0 764 l 131 764 z "},"i":{"ha":694,"x_min":86,"x_max":608,"o":"m 261 503 l 433 503 l 433 286 l 433 69 l 521 69 l 608 69 l 608 26 l 608 -17 l 347 -17 l 86 -17 l 86 26 l 86 69 l 174 69 l 261 69 l 261 243 l 261 417 l 174 417 l 86 417 l 86 460 l 86 503 l 261 503 m 347 764 l 433 764 l 433 678 l 433 590 l 347 590 l 261 590 l 261 678 l 261 764 l 347 764 z "},"j":{"ha":694,"x_min":0,"x_max":521,"o":"m 347 503 l 521 503 l 521 200 l 521 -104 l 478 -104 l 433 -104 l 433 -147 l 433 -192 l 261 -192 l 86 -192 l 86 -147 l 86 -104 l 43 -104 l 0 -104 l 0 -17 l 0 69 l 86 69 l 174 69 l 174 -17 l 174 -104 l 261 -104 l 347 -104 l 347 156 l 347 417 l 261 417 l 174 417 l 174 460 l 174 503 l 347 503 m 433 764 l 521 764 l 521 678 l 521 590 l 433 590 l 347 590 l 347 678 l 347 764 l 433 764 z "},"k":{"ha":694,"x_min":0,"x_max":608,"o":"m 131 764 l 261 764 l 261 547 l 261 331 l 304 331 l 347 331 l 347 374 l 347 417 l 390 417 l 433 417 l 433 460 l 433 503 l 521 503 l 608 503 l 608 460 l 608 417 l 564 417 l 521 417 l 521 374 l 521 331 l 478 331 l 433 331 l 433 286 l 433 243 l 478 243 l 521 243 l 521 200 l 521 156 l 564 156 l 608 156 l 608 69 l 608 -17 l 521 -17 l 433 -17 l 433 69 l 433 156 l 390 156 l 347 156 l 347 200 l 347 243 l 304 243 l 261 243 l 261 113 l 261 -17 l 131 -17 l 0 -17 l 0 26 l 0 69 l 43 69 l 86 69 l 86 374 l 86 678 l 43 678 l 0 678 l 0 721 l 0 764 l 131 764 z "},"l":{"ha":694,"x_min":86,"x_max":608,"o":"m 261 764 l 433 764 l 433 417 l 433 69 l 521 69 l 608 69 l 608 26 l 608 -17 l 347 -17 l 86 -17 l 86 26 l 86 69 l 174 69 l 261 69 l 261 374 l 261 678 l 174 678 l 86 678 l 86 721 l 86 764 l 261 764 z "},"m":{"ha":694,"x_min":0,"x_max":608,"o":"m 261 503 l 521 503 l 521 460 l 521 417 l 564 417 l 608 417 l 608 200 l 608 -17 l 521 -17 l 433 -17 l 433 200 l 433 417 l 390 417 l 347 417 l 347 243 l 347 69 l 304 69 l 261 69 l 261 243 l 261 417 l 217 417 l 174 417 l 174 200 l 174 -17 l 86 -17 l 0 -17 l 0 243 l 0 503 l 261 503 z "},"n":{"ha":694,"x_min":0,"x_max":521,"o":"m 217 503 l 433 503 l 433 460 l 433 417 l 478 417 l 521 417 l 521 200 l 521 -17 l 433 -17 l 347 -17 l 347 200 l 347 417 l 261 417 l 174 417 l 174 200 l 174 -17 l 86 -17 l 0 -17 l 0 243 l 0 503 l 217 503 z "},"o":{"ha":694,"x_min":0,"x_max":521,"o":"m 261 503 l 433 503 l 433 460 l 433 417 l 478 417 l 521 417 l 521 243 l 521 69 l 478 69 l 433 69 l 433 26 l 433 -17 l 261 -17 l 86 -17 l 86 26 l 86 69 l 43 69 l 0 69 l 0 243 l 0 417 l 43 417 l 86 417 l 86 460 l 86 503 l 261 503 m 261 417 l 174 417 l 174 243 l 174 69 l 261 69 l 347 69 l 347 243 l 347 417 l 261 417 z "},"p":{"ha":694,"x_min":0,"x_max":608,"o":"m 86 503 l 174 503 l 174 460 l 174 417 l 217 417 l 261 417 l 261 460 l 261 503 l 390 503 l 521 503 l 521 460 l 521 417 l 564 417 l 608 417 l 608 243 l 608 69 l 564 69 l 521 69 l 521 26 l 521 -17 l 390 -17 l 261 -17 l 261 -61 l 261 -104 l 304 -104 l 347 -104 l 347 -147 l 347 -192 l 174 -192 l 0 -192 l 0 -147 l 0 -104 l 43 -104 l 86 -104 l 86 156 l 86 417 l 43 417 l 0 417 l 0 460 l 0 503 l 86 503 m 347 417 l 261 417 l 261 243 l 261 69 l 347 69 l 433 69 l 433 243 l 433 417 l 347 417 z "},"q":{"ha":694,"x_min":0,"x_max":608,"o":"m 217 503 l 347 503 l 347 460 l 347 417 l 390 417 l 433 417 l 433 460 l 433 503 l 521 503 l 608 503 l 608 460 l 608 417 l 564 417 l 521 417 l 521 156 l 521 -104 l 564 -104 l 608 -104 l 608 -147 l 608 -192 l 433 -192 l 261 -192 l 261 -147 l 261 -104 l 304 -104 l 347 -104 l 347 -61 l 347 -17 l 217 -17 l 86 -17 l 86 26 l 86 69 l 43 69 l 0 69 l 0 243 l 0 417 l 43 417 l 86 417 l 86 460 l 86 503 l 217 503 m 261 417 l 174 417 l 174 243 l 174 69 l 261 69 l 347 69 l 347 243 l 347 417 l 261 417 z "},"r":{"ha":694,"x_min":0,"x_max":608,"o":"m 131 503 l 261 503 l 261 417 l 261 331 l 304 331 l 347 331 l 347 417 l 347 503 l 433 503 l 521 503 l 521 460 l 521 417 l 564 417 l 608 417 l 608 331 l 608 243 l 521 243 l 433 243 l 433 286 l 433 331 l 390 331 l 347 331 l 347 286 l 347 243 l 304 243 l 261 243 l 261 156 l 261 69 l 304 69 l 347 69 l 347 26 l 347 -17 l 174 -17 l 0 -17 l 0 26 l 0 69 l 43 69 l 86 69 l 86 243 l 86 417 l 43 417 l 0 417 l 0 460 l 0 503 l 131 503 z "},"s":{"ha":694,"x_min":0,"x_max":521,"o":"m 261 503 l 433 503 l 433 460 l 433 417 l 478 417 l 521 417 l 521 374 l 521 331 l 433 331 l 347 331 l 347 374 l 347 417 l 261 417 l 174 417 l 174 374 l 174 331 l 217 331 l 261 331 l 261 286 l 261 243 l 347 243 l 433 243 l 433 200 l 433 156 l 478 156 l 521 156 l 521 113 l 521 69 l 478 69 l 433 69 l 433 26 l 433 -17 l 261 -17 l 86 -17 l 86 26 l 86 69 l 43 69 l 0 69 l 0 113 l 0 156 l 86 156 l 174 156 l 174 113 l 174 69 l 261 69 l 347 69 l 347 113 l 347 156 l 304 156 l 261 156 l 261 200 l 261 243 l 174 243 l 86 243 l 86 286 l 86 331 l 43 331 l 0 331 l 0 374 l 0 417 l 43 417 l 86 417 l 86 460 l 86 503 l 261 503 z "},"t":{"ha":694,"x_min":0,"x_max":521,"o":"m 217 678 l 261 678 l 261 590 l 261 503 l 390 503 l 521 503 l 521 460 l 521 417 l 390 417 l 261 417 l 261 243 l 261 69 l 304 69 l 347 69 l 347 113 l 347 156 l 433 156 l 521 156 l 521 113 l 521 69 l 478 69 l 433 69 l 433 26 l 433 -17 l 304 -17 l 174 -17 l 174 26 l 174 69 l 131 69 l 86 69 l 86 243 l 86 417 l 43 417 l 0 417 l 0 460 l 0 503 l 43 503 l 86 503 l 86 547 l 86 590 l 131 590 l 174 590 l 174 633 l 174 678 l 217 678 z "},"u":{"ha":694,"x_min":0,"x_max":608,"o":"m 86 503 l 174 503 l 174 286 l 174 69 l 261 69 l 347 69 l 347 286 l 347 503 l 433 503 l 521 503 l 521 286 l 521 69 l 564 69 l 608 69 l 608 26 l 608 -17 l 521 -17 l 433 -17 l 433 26 l 433 69 l 390 69 l 347 69 l 347 26 l 347 -17 l 217 -17 l 86 -17 l 86 26 l 86 69 l 43 69 l 0 69 l 0 286 l 0 503 l 86 503 z "},"v":{"ha":694,"x_min":0,"x_max":521,"o":"m 86 503 l 174 503 l 174 331 l 174 156 l 261 156 l 347 156 l 347 331 l 347 503 l 433 503 l 521 503 l 521 331 l 521 156 l 478 156 l 433 156 l 433 113 l 433 69 l 390 69 l 347 69 l 347 26 l 347 -17 l 261 -17 l 174 -17 l 174 26 l 174 69 l 131 69 l 86 69 l 86 113 l 86 156 l 43 156 l 0 156 l 0 331 l 0 503 l 86 503 z "},"w":{"ha":694,"x_min":0,"x_max":608,"o":"m 86 503 l 174 503 l 174 331 l 174 156 l 217 156 l 261 156 l 261 243 l 261 331 l 304 331 l 347 331 l 347 243 l 347 156 l 390 156 l 433 156 l 433 331 l 433 503 l 521 503 l 608 503 l 608 331 l 608 156 l 564 156 l 521 156 l 521 69 l 521 -17 l 433 -17 l 347 -17 l 347 69 l 347 156 l 304 156 l 261 156 l 261 69 l 261 -17 l 174 -17 l 86 -17 l 86 69 l 86 156 l 43 156 l 0 156 l 0 331 l 0 503 l 86 503 z "},"x":{"ha":694,"x_min":0,"x_max":608,"o":"m 86 503 l 174 503 l 174 460 l 174 417 l 217 417 l 261 417 l 261 374 l 261 331 l 304 331 l 347 331 l 347 374 l 347 417 l 390 417 l 433 417 l 433 460 l 433 503 l 521 503 l 608 503 l 608 460 l 608 417 l 564 417 l 521 417 l 521 374 l 521 331 l 478 331 l 433 331 l 433 243 l 433 156 l 478 156 l 521 156 l 521 113 l 521 69 l 564 69 l 608 69 l 608 26 l 608 -17 l 521 -17 l 433 -17 l 433 26 l 433 69 l 390 69 l 347 69 l 347 113 l 347 156 l 304 156 l 261 156 l 261 113 l 261 69 l 217 69 l 174 69 l 174 26 l 174 -17 l 86 -17 l 0 -17 l 0 26 l 0 69 l 43 69 l 86 69 l 86 113 l 86 156 l 131 156 l 174 156 l 174 243 l 174 331 l 131 331 l 86 331 l 86 374 l 86 417 l 43 417 l 0 417 l 0 460 l 0 503 l 86 503 z "},"y":{"ha":694,"x_min":0,"x_max":608,"o":"m 174 503 l 261 503 l 261 331 l 261 156 l 347 156 l 433 156 l 433 331 l 433 503 l 521 503 l 608 503 l 608 331 l 608 156 l 564 156 l 521 156 l 521 69 l 521 -17 l 478 -17 l 433 -17 l 433 -61 l 433 -104 l 390 -104 l 347 -104 l 347 -147 l 347 -192 l 174 -192 l 0 -192 l 0 -147 l 0 -104 l 131 -104 l 261 -104 l 261 -61 l 261 -17 l 304 -17 l 347 -17 l 347 26 l 347 69 l 261 69 l 174 69 l 174 113 l 174 156 l 131 156 l 86 156 l 86 331 l 86 503 l 174 503 z "},"z":{"ha":694,"x_min":0,"x_max":521,"o":"m 261 503 l 521 503 l 521 417 l 521 331 l 478 331 l 433 331 l 433 286 l 433 243 l 347 243 l 261 243 l 261 200 l 261 156 l 217 156 l 174 156 l 174 113 l 174 69 l 304 69 l 433 69 l 433 113 l 433 156 l 478 156 l 521 156 l 521 69 l 521 -17 l 261 -17 l 0 -17 l 0 69 l 0 156 l 43 156 l 86 156 l 86 200 l 86 243 l 174 243 l 261 243 l 261 286 l 261 331 l 304 331 l 347 331 l 347 374 l 347 417 l 217 417 l 86 417 l 86 374 l 86 331 l 43 331 l 0 331 l 0 417 l 0 503 l 261 503 z "},"{":{"ha":694,"x_min":0,"x_max":521,"o":"m 390 764 l 521 764 l 521 721 l 521 678 l 433 678 l 347 678 l 347 590 l 347 503 l 304 503 l 261 503 l 261 460 l 261 417 l 217 417 l 174 417 l 174 374 l 174 331 l 217 331 l 261 331 l 261 286 l 261 243 l 304 243 l 347 243 l 347 156 l 347 69 l 433 69 l 521 69 l 521 26 l 521 -17 l 390 -17 l 261 -17 l 261 26 l 261 69 l 217 69 l 174 69 l 174 156 l 174 243 l 131 243 l 86 243 l 86 286 l 86 331 l 43 331 l 0 331 l 0 374 l 0 417 l 43 417 l 86 417 l 86 460 l 86 503 l 131 503 l 174 503 l 174 590 l 174 678 l 217 678 l 261 678 l 261 721 l 261 764 l 390 764 z "},"|":{"ha":694,"x_min":260,"x_max":435,"o":"m 347 331 l 433 331 l 433 156 l 433 -17 l 347 -17 l 261 -17 l 261 156 l 261 331 l 347 331 m 347 764 l 433 764 l 433 590 l 433 417 l 347 417 l 261 417 l 261 590 l 261 764 l 347 764 z "},"}":{"ha":694,"x_min":0,"x_max":521,"o":"m 131 764 l 261 764 l 261 721 l 261 678 l 304 678 l 347 678 l 347 590 l 347 503 l 390 503 l 433 503 l 433 460 l 433 417 l 478 417 l 521 417 l 521 374 l 521 331 l 478 331 l 433 331 l 433 286 l 433 243 l 390 243 l 347 243 l 347 156 l 347 69 l 304 69 l 261 69 l 261 26 l 261 -17 l 131 -17 l 0 -17 l 0 26 l 0 69 l 86 69 l 174 69 l 174 156 l 174 243 l 217 243 l 261 243 l 261 286 l 261 331 l 304 331 l 347 331 l 347 374 l 347 417 l 304 417 l 261 417 l 261 460 l 261 503 l 217 503 l 174 503 l 174 590 l 174 678 l 86 678 l 0 678 l 0 721 l 0 764 l 131 764 z "},"~":{"ha":694,"x_min":0,"x_max":694,"o":"m 217 764 l 347 764 l 347 721 l 347 678 l 390 678 l 433 678 l 433 633 l 433 590 l 478 590 l 521 590 l 521 678 l 521 764 l 608 764 l 694 764 l 694 721 l 694 678 l 651 678 l 608 678 l 608 590 l 608 503 l 478 503 l 347 503 l 347 547 l 347 590 l 304 590 l 261 590 l 261 633 l 261 678 l 217 678 l 174 678 l 174 590 l 174 503 l 86 503 l 0 503 l 0 590 l 0 678 l 43 678 l 86 678 l 86 721 l 86 764 l 217 764 z "},"":{"ha":694,"x_min":0,"x_max":608,"o":"m 304 590 l 347 590 l 347 547 l 347 503 l 390 503 l 433 503 l 433 460 l 433 417 l 478 417 l 521 417 l 521 374 l 521 331 l 564 331 l 608 331 l 608 200 l 608 69 l 304 69 l 0 69 l 0 200 l 0 331 l 43 331 l 86 331 l 86 374 l 86 417 l 131 417 l 174 417 l 174 460 l 174 503 l 217 503 l 261 503 l 261 547 l 261 590 l 304 590 m 304 417 l 261 417 l 261 374 l 261 331 l 217 331 l 174 331 l 174 243 l 174 156 l 304 156 l 433 156 l 433 243 l 433 331 l 390 331 l 347 331 l 347 374 l 347 417 l 304 417 z "}," ":{"ha":694,"x_min":0,"x_max":0,"o":""},"¡":{"ha":694,"x_min":0,"x_max":0,"o":""},"¢":{"ha":694,"x_min":0,"x_max":0,"o":""},"£":{"ha":694,"x_min":0,"x_max":0,"o":""},"¤":{"ha":694,"x_min":0,"x_max":0,"o":""},"¥":{"ha":694,"x_min":0,"x_max":0,"o":""},"¦":{"ha":694,"x_min":0,"x_max":0,"o":""},"§":{"ha":694,"x_min":0,"x_max":0,"o":""},"¨":{"ha":694,"x_min":0,"x_max":0,"o":""},"©":{"ha":694,"x_min":0,"x_max":0,"o":""},"ª":{"ha":694,"x_min":0,"x_max":0,"o":""},"«":{"ha":694,"x_min":0,"x_max":0,"o":""},"¬":{"ha":694,"x_min":0,"x_max":0,"o":""},"­":{"ha":694,"x_min":0,"x_max":0,"o":""},"®":{"ha":694,"x_min":0,"x_max":0,"o":""},"¯":{"ha":694,"x_min":0,"x_max":0,"o":""},"°":{"ha":694,"x_min":0,"x_max":0,"o":""},"±":{"ha":694,"x_min":0,"x_max":0,"o":""},"²":{"ha":694,"x_min":0,"x_max":0,"o":""},"³":{"ha":694,"x_min":0,"x_max":0,"o":""},"´":{"ha":694,"x_min":0,"x_max":0,"o":""},"µ":{"ha":694,"x_min":0,"x_max":0,"o":""},"¶":{"ha":694,"x_min":0,"x_max":0,"o":""},"·":{"ha":694,"x_min":0,"x_max":0,"o":""},"¸":{"ha":694,"x_min":0,"x_max":0,"o":""},"¹":{"ha":694,"x_min":0,"x_max":0,"o":""},"º":{"ha":694,"x_min":0,"x_max":0,"o":""},"»":{"ha":694,"x_min":0,"x_max":0,"o":""},"¼":{"ha":694,"x_min":0,"x_max":0,"o":""},"½":{"ha":694,"x_min":0,"x_max":0,"o":""},"¾":{"ha":694,"x_min":0,"x_max":0,"o":""},"¿":{"ha":694,"x_min":0,"x_max":0,"o":""},"À":{"ha":694,"x_min":0,"x_max":0,"o":""},"Á":{"ha":694,"x_min":0,"x_max":0,"o":""},"Â":{"ha":694,"x_min":0,"x_max":0,"o":""},"Ã":{"ha":694,"x_min":0,"x_max":0,"o":""},"Ä":{"ha":694,"x_min":0,"x_max":0,"o":""},"Å":{"ha":694,"x_min":0,"x_max":0,"o":""},"Æ":{"ha":694,"x_min":0,"x_max":0,"o":""},"Ç":{"ha":694,"x_min":0,"x_max":0,"o":""},"È":{"ha":694,"x_min":0,"x_max":0,"o":""},"É":{"ha":694,"x_min":0,"x_max":0,"o":""},"Ê":{"ha":694,"x_min":0,"x_max":0,"o":""},"Ë":{"ha":694,"x_min":0,"x_max":0,"o":""},"Ì":{"ha":694,"x_min":0,"x_max":0,"o":""},"Í":{"ha":694,"x_min":0,"x_max":0,"o":""},"Î":{"ha":694,"x_min":0,"x_max":0,"o":""},"Ï":{"ha":694,"x_min":0,"x_max":0,"o":""},"Ð":{"ha":694,"x_min":0,"x_max":0,"o":""},"Ñ":{"ha":694,"x_min":0,"x_max":0,"o":""},"Ò":{"ha":694,"x_min":0,"x_max":0,"o":""},"Ó":{"ha":694,"x_min":0,"x_max":0,"o":""},"Ô":{"ha":694,"x_min":0,"x_max":0,"o":""},"Õ":{"ha":694,"x_min":0,"x_max":0,"o":""},"Ö":{"ha":694,"x_min":0,"x_max":0,"o":""},"×":{"ha":694,"x_min":0,"x_max":0,"o":""},"Ø":{"ha":694,"x_min":0,"x_max":0,"o":""},"Ù":{"ha":694,"x_min":0,"x_max":0,"o":""},"Ú":{"ha":694,"x_min":0,"x_max":0,"o":""},"Û":{"ha":694,"x_min":0,"x_max":0,"o":""},"Ü":{"ha":694,"x_min":0,"x_max":0,"o":""},"Ý":{"ha":694,"x_min":0,"x_max":0,"o":""},"Þ":{"ha":694,"x_min":0,"x_max":0,"o":""},"ß":{"ha":694,"x_min":0,"x_max":0,"o":""},"à":{"ha":694,"x_min":0,"x_max":0,"o":""},"á":{"ha":694,"x_min":0,"x_max":0,"o":""},"â":{"ha":694,"x_min":0,"x_max":0,"o":""},"ã":{"ha":694,"x_min":0,"x_max":0,"o":""},"ä":{"ha":694,"x_min":0,"x_max":0,"o":""},"å":{"ha":694,"x_min":0,"x_max":0,"o":""},"æ":{"ha":694,"x_min":0,"x_max":0,"o":""},"ç":{"ha":694,"x_min":0,"x_max":0,"o":""},"è":{"ha":694,"x_min":0,"x_max":0,"o":""},"é":{"ha":694,"x_min":0,"x_max":0,"o":""},"ê":{"ha":694,"x_min":0,"x_max":0,"o":""},"ë":{"ha":694,"x_min":0,"x_max":0,"o":""},"ì":{"ha":694,"x_min":0,"x_max":0,"o":""},"í":{"ha":694,"x_min":0,"x_max":0,"o":""},"î":{"ha":694,"x_min":0,"x_max":0,"o":""},"ï":{"ha":694,"x_min":0,"x_max":0,"o":""},"ð":{"ha":694,"x_min":0,"x_max":0,"o":""},"ñ":{"ha":694,"x_min":0,"x_max":0,"o":""},"ò":{"ha":694,"x_min":0,"x_max":0,"o":""},"ó":{"ha":694,"x_min":0,"x_max":0,"o":""},"ô":{"ha":694,"x_min":0,"x_max":0,"o":""},"õ":{"ha":694,"x_min":0,"x_max":0,"o":""},"ö":{"ha":694,"x_min":0,"x_max":0,"o":""},"÷":{"ha":694,"x_min":0,"x_max":0,"o":""},"ø":{"ha":694,"x_min":0,"x_max":0,"o":""},"ù":{"ha":694,"x_min":0,"x_max":0,"o":""},"ú":{"ha":694,"x_min":0,"x_max":0,"o":""},"û":{"ha":694,"x_min":0,"x_max":0,"o":""},"ü":{"ha":694,"x_min":0,"x_max":0,"o":""},"ý":{"ha":694,"x_min":0,"x_max":0,"o":""},"þ":{"ha":694,"x_min":0,"x_max":0,"o":""},"€":{"ha":694,"x_min":0,"x_max":0,"o":""},"‚":{"ha":694,"x_min":0,"x_max":0,"o":""},"ƒ":{"ha":694,"x_min":0,"x_max":0,"o":""},"„":{"ha":694,"x_min":0,"x_max":0,"o":""},"…":{"ha":694,"x_min":0,"x_max":0,"o":""},"†":{"ha":694,"x_min":0,"x_max":0,"o":""},"‡":{"ha":694,"x_min":0,"x_max":0,"o":""},"ˆ":{"ha":694,"x_min":0,"x_max":0,"o":""},"‰":{"ha":694,"x_min":0,"x_max":0,"o":""},"Š":{"ha":694,"x_min":0,"x_max":0,"o":""},"‹":{"ha":694,"x_min":0,"x_max":0,"o":""},"Œ":{"ha":694,"x_min":0,"x_max":0,"o":""},"Ž":{"ha":694,"x_min":0,"x_max":0,"o":""},"‘":{"ha":694,"x_min":0,"x_max":0,"o":""},"’":{"ha":694,"x_min":0,"x_max":0,"o":""},"“":{"ha":694,"x_min":0,"x_max":0,"o":""},"”":{"ha":694,"x_min":0,"x_max":0,"o":""},"•":{"ha":694,"x_min":0,"x_max":0,"o":""},"–":{"ha":694,"x_min":0,"x_max":0,"o":""},"—":{"ha":694,"x_min":0,"x_max":0,"o":""},"˜":{"ha":694,"x_min":0,"x_max":0,"o":""},"™":{"ha":694,"x_min":0,"x_max":0,"o":""},"š":{"ha":694,"x_min":0,"x_max":0,"o":""},"›":{"ha":694,"x_min":0,"x_max":0,"o":""},"œ":{"ha":694,"x_min":0,"x_max":0,"o":""},"ž":{"ha":694,"x_min":0,"x_max":0,"o":""},"Ÿ":{"ha":694,"x_min":0,"x_max":0,"o":""}}}
